<?xml version="1.0" encoding="UTF-8"?>
<svg id="Capa_1" data-name="Capa 1" xmlns="http://www.w3.org/2000/svg" viewBox="0 0 1080 1080">
  <defs>
    <style>
      .cls-1 {
        fill: none;
      }

      .cls-2 {
        fill: #fff;
      }
    </style>
  </defs>
  <g>
    <path d="M573.5,147.4c2.96-.84,7.47,1.21,9.91.94,1.08-.12,2.14-1.44,3.31-1.43.94.01,1.73.97,2.72,1.03,1.81.12,6.89-1.04,7.99-.96.93.07,2.06,1.4,3.36,1.49,1.58.11,3.57-1.16,5.39-1.12s4.14,1.36,6.39.98c.8-.13,1.46-1.35,2.8-1.45,2.64-.19,6.68,1.54,8.61,1.66,1.18.07,2.46-.6,3.76-.61,3.59-.04,8.3.65,11.39.51,1.46-.07,4.54-1.93,7.95-1.47,8.64,1.17,15.79-.35,24.37.48,1.03.1,2.11.91,2.84.93.93.02,1.49-1.02,2.3-1.27,4.47-1.37,6,1.75,6.76,1.78.23,0,2.75-1.46,4.36-1.5,4.37-.1,8.99.48,13.15.78,2.96.21,5.45-1.27,7.27-1.14,1.41.1,2.37,1.45,3.83,1.48,2.34.06,5.89-1.51,7.61-1.63,3.3-.23,8.19,1.29,11.79.91.69-.07,1.35-.89,2.22-.9,1.23-.02,2.53,1.54,3.83,1.6,1.18.05,1.74-.92,2.69-1.09,2.46-.44,3.72,1.45,4.27,1.44.34,0,.97-.84,1.66-.91,1.06-.11,2.23.44,2.96.22.66-.2,1.21-1.21,2.44-1.3.93-.07,5.85,2.09,7.52,1.96.63-.05,1.47-1.33,2.74-1.42s2.48,1.13,4.27,1.13c5.18.02,11.31-1.32,16.25-1.68,1.27-.09,1.98.9,2.75.97.93.09,1.81-1.07,3.11-.97.97.07,1.7.98,2.71,1.02,6.45.27,15.5-1.55,21.47-.31,3.59.75,1.82.21,5-.18s6.19,1.13,8.69,1.02c4.64-.21,9.17-.37,13.98-.45,1.5-.02,3.37-1.03,4.82-.92,1.81.13,3.69,2.3,4.39,2.34,1.33.07,4.36-2.49,5.91-2.53,3.15-.09,7.56,1.62,9.21,1.61,1.86,0,3.05-2.46,5.95.02.29.25,2.78,3.41,2.85,3.63.45,1.48.05,7.94.11,10.15.17,5.66.38,12.62.11,18.36-.34,7.11-.44,16.17-.13,23.73.09,2.1,1.06,6.24,1.07,7.59,0,1.25-1.31,1.98-1.44,2.78-.48,2.9.33,11.37.38,15.04.11,7.42.9,14.79.6,22.13-.33,7.73.45,15.46-.06,23.2-.06.96-.98,1.65-.94,2.63.05,1.28,1.43,3.26,1.33,4.88-.29,4.38-1.28,7.05-.52,11.56.96,5.67-.32,11.37-.45,17.14-.03,1.37.64,2.69.57,3.75-.08,1.26-1.97,4.42-1.93,5.42.04.89,2.09,3.12,2.22,4.85.35,4.47-.26,12.72-.84,17.28-.1.82-1.05,1.48-1.06,2.19-.02,1.3,2.36,2.1,1.38,5.15-.22.67-1.13,1.32-1.18,1.86-.13,1.42,1.99,6.06,1.99,7.56,0,1.39-1.16,2.39-1.16,3.78s1,2.19,1.12,3.29c.19,1.83-1.1,4.59-1.08,6.44.02,1.62,1.15,3.02,1.13,4.85-.03,2.77-.6,5.75-.57,9.2.04,4.55.3,10.53,0,15.12-.11,1.64-1.11,3.79-1.05,4.87s1.44,1.88,1.58,3.27c.17,1.67-1.05,2.32-1.15,3.72-.11,1.64.93,2.51,1.1,3.81.72,5.25-2.45,8.84-1.97,13.41.1.97,1.22,2.01,1.43,3.34,1.84,11.41-1.92,25.21-.38,36.56.15,1.08.99,2.08.98,3.37,0,1.77-1.69,2.93-1.56,3.68.14.87,1.53,1.51,1.59,3.87.13,5.25-1.47,11.18-1.12,16.73.37,5.89.39,7.67.14,13.39-.06,1.32,1.06,3.35.98,4.97-.08,1.43-1.11,2.36-1.14,3.76-.04,2.64,1.2,7.59,1.1,10.82-.07,2.2-1.11,5.58-1.12,7.02-.01,2.14,1.92,3.3.88,6.78-.59,1.97-1.22,3.64-.72,6.04.98,4.76.03,3.5-.07,7.21-.06,2.27,1.78,4.59-1.12,6.43,3.18,1.58,1.68,3.57,1.61,5.94-.11,3.69.06,5.55-.42,9.3-.55,4.33,1.19,7.65.99,11.2-.09,1.5-1.25,3.07-1.11,4.31.09.78.92,1.37,1.05,2.22.73,4.98-.45,9.94-.49,15.06-.03,3.68-1.09,9.02-1.01,11.93.09,3.53.93,6.88.97,11.3.07,6.71.57,13.31.59,19.97,0,3.86-.91,8.01-1.12,11.42-.07,1.15,1.15,2.02,1.16,3.72,0,1.45-.85,2.38-.89,3.23-.09,1.86.73,4.65.66,6.43-.15,3.59-.39,2.63.14,6.58.36,2.7-1.02,6.55-.97,6.9.1.66,1.46,1.48,1.54,2.83s-.97,2.1-1.06,3.23c-.41,5.1,1.06,11.67,1.03,16.64-.03,4.03-1.1,4.38-.5,9.31.21,1.77-.5,4.95-.43,6.85.03.81.86,1.74.89,2.81.06,2.25-1.85,4.06-2,4.97-.13.77,1.25,1.7,1.46,2.73.45,2.21.32,7.11-.06,9.46-.65,4.07.25,8.02-.21,12.65-.32,3.24.91,6.17.82,9.15-.06,2.01-1.01,4.59-1.04,6.45-.09,7.2,1.11,14.47.54,22.09-.06.85-.82,1.56-.89,2.25-.17,1.62,1.09,4.13.92,5.83-.14,1.41-1.58,2.29-1.6,3.28-.02.76.92,1.94,1.08,3.23.23,1.91-.68,6.15-.47,6.93.22.85,1.5,1.07,1.59,2.8.08,1.59-.88,2.37-.98,3.31-.23,2.18.53,6.35.4,9.13-.06,1.27-.96,2.13-.96,3.12.02,2.5,1.76,5.41,1.48,8.74-.2,2.37-2.06,4.45-2.16,5.99-.11,1.62,1.36,2.66,1.79,4.1,1.05,3.51-1.29,7.3-1.18,11.01.04,1.38,1.44,2.41,1.53,3.79s-1.07,3.02-1.11,4.83c-.12,5.29.37,12.72,1.03,17.81.45,3.46-2.38,6.66-5.71,7.21-1.76.29-2.45-.92-3.55-.87-1.68.08-4.94,1.5-7.11,1.49-1.67,0-4.41-1.09-5.97-1.01-10.77.52-22.9,1.55-33.99,1.05-1.72-.08-4.35-1.78-6.43-1.51-1.04.13-1.7,1.38-3.29,1.52-1.92.17-3.65-1.02-4.97-1-.81.01-1.39.94-2.56.98-3,.11-5.37-.48-9.29-.23-6.78.43-13.64.11-20.44.19-3.35.04-6.7-.58-9.71-.57-2.62,0-5.39.52-8.62.55-2.67.03-6.45.59-8.69.5-1-.04-1.71-.98-2.58-.9-2.18.19-5.46,1.24-8.2,1.02-2.01-.16-2.46-1.96-3.22-2.04-.51-.05-2.13.83-3.26.91-2.03.15-3.62-.6-5.32-.52-3.85.18-8.68,2.61-12.79,1.34-1.11-.34-2.25-1.95-3.5-1.91-1.04.03-1.48,1.43-2.71,1.63-1.48.24-2.85-.7-4.25-.56-2.24.23-5.47,1.23-8.12,1.07-1.02-.06-1.93-1.05-3.27-1.11-1.02-.05-4.15.49-5.93.58-12,.6-24.06.3-36.25.08-4.53-.08-10.67.46-15.03-.1-.83-.11-1.48-1.05-2.19-1.06-.96,0-2,1.38-4.83,1.04-3.34-.4-7.26-1.34-10.8-.48-1.28.31-2.04,1.51-3.25,1.54-1.43.03-2.48-1.28-3.34-1.4-1.24-.18-4.47.51-6.42.39-1.8-.11-5.98-1.11-7.03-1.06s-1.62,1.32-2.53,1.72c-3.76,1.67-6.82-2.11-10.43-1.53-.59.09-1,1.17-2.14,1.4-2.12.42-4.3-.77-6.47-.57-7.34.69-14.32.93-21.61.62-6.39-.28-11.46.73-17.8.49-1.48-.06-3.71-1-4.99-.92-2.89.17-1.91.39-5.35.01-2-.22-5.98.94-8.03.92s-6.42-1.51-7.46-1.5-2.76,1.28-3.96,1.34c-1.48.08-2.72-1.23-3.78-1.32-1.23-.11-2.55,1.17-4.2.94-1.19-.17-1.92-1.56-3.19-1.5-1.2.06-2.33,1.31-3.85,1.52-1.14.15-7.09.46-8.05.36-8.11-.85-17.32.9-25.93.65-2.69-.08-5.85-2.23-9.8-1.86-1.37.13-2.13,1.51-4.23,1.35-1.83-.14-4.61-2.2-5.97-2.17-.35,0-.29,1.01-.96,1.28-.32.13-5.3,1.4-5.59,1.43-1.41.1-2.97-1.01-4.31-.98-1.12.02-2.06.87-3.21.92-5.37.21-12.98-1.07-18.92-1-4.01.05-7.31.46-11.27.61-2.99.11-3.77-.52-5.46-.56-1.08-.02-2.65,1-4.33,1.07-6.04.24-13.68-.36-19.93-.53-2.58-.07-3.54,1.35-5.47-2.21-.93-.24-1.76,1.87-3.25,2.16-2.47.47-3.56-1.22-4.8-1.09-1.97.21-6.05,1.86-8.69,1.69-1.69-.11-2.1-1.42-2.68-1.49-.86-.1-3.38,1.45-4.9,1.48-1.69.03-2.31-1.03-3.2-1.08-1.11-.06-2.61,1.18-4.33,1.08-3.15-.17-6.4-.45-9.72-.59-1.63-.07-4.06-1.09-5.44-1.01-1.1.06-1.84,1.45-3.23,1.55-1.75.12-3.34-1.44-4.38-1.5-.86-.05-2.11,1.38-3.67,1.42-4.13.11-9.14-.52-13.51-.33-8.29.36-16.9.54-25.41.4-.97-.02-1.92.51-2.7.49-1.63-.05-3.29-2.08-4.21-2s-2.3,1.77-3.93,1.9c-2.66.21-7.3-1.36-10.22-1.47-2.28-.08-7.42,1.28-9.11,1.11-1.29-.13-1.93-1.23-2.89-1.48-4.71-1.24-8.79.12-8.61-6.47.04-1.66.33-3.06.33-5.27,0-8.17.44-16.8.09-24.84-.06-1.34-1.1-2.34-1.09-3.24,0-.38,1.03-6.9,1.2-7.42.39-1.23,1.6-2.12,1.49-3.34-.09-.99-1.28-1.76-1.53-2.84-1.3-5.59-.2-12.56-.13-18.26.02-2.19-.97-6.05-.23-7.81.2-.48,1.14-.87,1.25-1.44.14-.66-1.52-3.19-1.56-4.8-.05-2.15,1.12-5.41,1.1-7.54-.01-1.8-1.18-4.8-1.06-6.46.08-1.08,1.1-1.93,1.1-3.26,0-1.41-1.21-2.39-1.12-3.74s1.43-2.15,1.53-2.83c.11-.72-1.53-2.26-1.48-3.7.03-.98.93-1.67.97-2.66.19-4.96-1.76-12.03-.37-16.66.25-.82,1.52-1.21,1.44-2.17-.06-.73-1.24-2.08-1.51-3.37-.64-3.05.5-5.89.39-7.43-.08-1.1-1.62-2.65-1.49-4.38.11-1.5,1.93-3.19,1.61-5.98-.16-1.36-1.05-2.43-1.05-3.23,0-.96,1.03-1.76,1.03-2.7,0-.86-.86-1.56-.91-2.23-.26-3.91,1.17-8.32.78-12.29-.09-.93-1.07-1.72-.98-3.31.1-1.77,2.16-2.89,2.08-3.78-.04-.4-1.11-1.05-1.37-1.73-.83-2.18-.85-16.05-.67-19.29.08-1.36.95-2.54.98-3.37.03-1.01-1.56-1.91-1.54-3.68.01-1.26.9-2,.98-2.78.1-.94-.95-4.92-.95-6.4.02-4.38,1.33-9.06.92-13.43-.08-.81-.95-1.55-.96-2.77-.01-1.91,2.31-5.63,2.17-8.06-.13-2.21-2.04-6.62-2.1-8.19-.06-1.36.88-2.33.93-3.29s-.87-1.67-.94-2.63c-.21-3.01,1.45-8.28,1.54-10.75.07-1.99-1.04-5.6-1.02-7.6.03-3.8.81-1.64-.28-6.19-1.25-5.21,1.21-11.37,1.22-15.84,0-1.6-1.45-2.98-1.5-4.4-.1-3.11,1.17-6.62,1.15-9.21-.01-2.16-1.1-2.93-1.18-4.31-.48-8.4.69-17.26.83-25.58.26-16.11-.82-32.08-.23-48.41.03-.89-.57-1.81-.57-2.72,0-1.63,2.1-4.64,2.03-5.39-.03-.37-2.19-3.32-2-5.91.08-1.02,1.07-1.85,1.05-2.73-.02-1.01-1.52-1.9-1.61-3.28-.08-1.29.95-2.11,1.07-3.26.9-8.94-1.63-19.9-.54-28.57.21-1.69,1.38-2.84,1.48-3.83.34-3.58-1.09-6.28-1.37-9.1-.82-8.22,1.1-17.68.33-25.81-.94-9.91.65-20.38.11-30.34-.44-8.24-.44-17.03-1-25.47-.17-2.65.81-4.7.98-6.96.23-3.13-1.1-6.28-1.1-9.17,0-1.85,1.08-4.27,1.03-5.96-.04-1.35-1.03-2.58-1.03-4.3,0-2.31,1.75-4.93,1.69-7.05-.05-1.64-1.51-2.27-1.58-3.73-.14-3.21.45-6.97.49-10.31.04-3.58-.3-8.99-.08-12.4.08-1.16,1.03-1.85,1.02-2.6-.07-4.45-1.54-9.72-1.53-14.65,0-2.96,1.26-8.05,1.14-10.28-.17-3.21-1.69-8.73-1.51-12.34.06-1.24,2.01-5.13,1.95-5.41-.11-.58-1.34-.95-1.59-2.74-.4-2.88.98-6.3.91-7.58-.02-.39-.76-.98-.86-1.66-.35-2.47,1.03-3.83,1.01-5.38-.02-1.3-1.48-2.47-1.56-3.81-.11-1.68,1.24-2.31,1.37-3.18.22-1.56-1.14-3.38-1.23-4.42-.12-1.39,1.14-2.33,1.23-3.16.17-1.65-1.39-7.3-1.34-9.68s1.65-5.68,1.63-8.69c-.02-2.43-1.13-4.75-1.16-7.01-.02-1.8.92-3.08.92-3.78-.01-5.2-1.46-10.46-.83-16.12.18-1.58,1.56-4.44,1.56-4.95,0-.43-2.15-5.58-2.17-8.12-.03-2.97,2-8.29,1.51-10.71-.14-.7-1.34-1.09-1.51-2.25-.24-1.61.92-2.43.99-3.3s-.82-1.51-.86-2.18c-.24-4.12,1.99-8.41,6.61-8.28,3.1.08,4.02-.59,5.97-.59,2.17,0,5.5.57,8.04.57.98,0,1.98-.72,3.27-.51s1.59,1.56,2.62,1.54c1.25-.02,3.73-1.57,5.53-1.54,1.43.02,2.5,1.1,4.3,1.15,2.67.07,6.47-1.51,10.21-1.13,16.33,1.66,32.26-.91,48.67-.03,1.71.09,3.63,1.07,4.86,1.03,1.4-.04,3.42-1.66,5.35-1.53,2.3.15,3.09,2.17,3.3,2.17,1,0,3-1.64,4.85-1.68,3.84-.08,5.22.79,9.19.04,2.46-.46,3.29,1.08,5.36,1.12,1.9.04,3.48-1.2,5.42-1.19,2.49.02,5.01,1.33,8.5,1.01,5.14-.48,12.69-1.45,17.96-1.01,1.29.11,2.06,1.2,3.23,1.19s1.95-1.16,3.23-1.19c1.58-.03,2.92,1.49,3.79,1.47.61-.01,1.32-.82,2.18-.88s1.68.61,2.55.43c.83-.17,1.45-1.46,2.73-1.39,1.12.06,4.81,1.78,6.67,1.9,1.2.08,2.19-1.24,3.23-1.35,1.33-.14,3.24,1.42,4.7,1.33,4.35-.26,9.07-.87,13.51-1.09,1.85-.09,6.49-.86,8.08-.77,1.13.06,2.33,1.28,2.78,1.27.33,0,1.12-.85,2.15-.94,1.91-.16,4.89.65,7,.62,2.37-.03,6.04-.94,8.1-1.03s4.72,1.5,6.02,1.57c1.09.06,1.86-.95,3.2-1.13,2.58-.34,5.83,1.22,8.08,1.14s4.13-.55,6.98-.61c3.46-.08,9.24-.74,12.47-.53,2.11.14,3.23,1.97,4.41,2.09,1.36.13,3.96-2.3,5.38-2.43.74-.07,3.76-.01,4.72.03,1.97.08,4.09,2.13,5.45-.75.72-1.52.2-3.32,1.61-4.87,1.3-1.43,3.17-1.1,4.08-1.86.82-.68.95-2.95,1.93-4.01s2.71-1.15,3.47-1.93c.71-.73.64-1.82,1.17-2.61,1.7-2.56,4.71-2.64,6.9-4.44,3.49-2.86,7.04-6.08,10.64-8.8,1.26-.95,2.99-.84,3.94-1.46.71-.46,1.78-2.54,3.01-3.47,3.31-2.51,12.82-9.16,16.32-10.14,1.25-.35,2.51.12,3.91-.41,1.59-.61,3.03-3.17,4.38-4.26,4.75-3.85,8.09-3.88,12.39.49,3.81,3.87,1.69,6.28.78,10.79-1.1,5.46-2.73,10.02-4.29,15.42-1.14,3.97-1.68,1.98-1.93,7.24-.06,1.24-1.2,2.52-1.06,3.8.13,1.18,1.74,1.91,2.06,3.37.39,1.75-.45,3.15-.28,4.13.15.89,2.07,2.4,1.49,4.1ZM554.04,126.9c-3.96-.01-4.33,1.45-6.75,3.24s-4.79,1.22-5.58,1.71c-.11.07-.62,1.7-1.16,2.35-1.25,1.52-2.48,1.54-3.48,2.46-1.5,1.39-2.32,4.38-4.6,5.12-1.18.38-2.48-.02-3.58.74-.89.62-3.05,4.71-4.26,6-1.41,1.51-3.82,2.68-5.16,4.56-1.02,1.43-1.39,3.83-2.95,5.15-1.47,1.24-3.8,1.13-4.86,2.16-.65.63-.96,2.26-1.67,3.19-.5.66-1.79.94-2.13,1.65-.51,1.06-.07,2.31-.38,3.4-.89,3.08-2.96,3.21-4.14,5.58-2.38,4.79-1.55,8.96-3.03,13.17-.58,1.65-2.54,3.38-2.73,4.28-.08.39,1.03,5.4.78,7.81-.34,3.23-3.03,6.46-3.04,6.96-.11,4.41,2.26,11.95,3.08,16.36.44,2.37.14,6.88,1.23,9.03.45.88,1.51,1.13,2.17,2.15.95,1.46.66,3.18,1.24,4.16.33.56,1.73,1.01,2.43,1.89,1.18,1.49,4.27,5.87,4.95,7.47,1.13,2.61,1.3,5.72,2.13,8.4,5.6-1.16,4.84,4.86,9.06,4.9.09-1.83,2.02-2.83,2.5-4.26,1.55-4.61,3.25-8.36,6.71-12.19,1.63-1.81,5.82-3.4,6.44-4.36.86-1.34.49-3.6,1.1-5.38.54-1.57,4.45-7.79,5.7-8.88.57-.5,1.73-.5,2.16-1.08,2.07-2.84,1.44-7,2.02-9.86.22-1.1,1.28-2.43,1.67-3.73,1.46-4.89,2.06-9.01,3.32-13.95,1.18-4.61,2.71-9.57,3.8-14.57.59-2.68.46-4.61.92-6.64.32-1.4,2.21-4.34,2.5-6.15.15-1.46-3.77-3.1-4.47-5.05-.75-2.1.21-3.48-.05-4.9-.16-.88-1.21-1.76-1.33-2.96-.19-1.78,1.03-2.61,1.09-3.77.06-1.09-1.07-2.03-1.15-3.72-.12-2.34,1.49-4.37,1.15-6.47-.28-1.72-3.44-3.01-3.62-6.04-.21-3.73,2.74-4.5,3.02-5.41.33-1.08-1.28-3.16-1.03-4.51ZM685.26,257.04c-2.13.09-4.67-.78-5.53-2.84-.47-1.11-.16-2.39-.96-3.36-1.23-1.51-5.41-1.98-7.21-3.05-2.18-1.3-3.65-3.65-7.1-3.64-1.11,0-2.16.94-3.28.99-1.84.08-2.39-1.14-4.76.1-3.07,1.61-2.44,3.89-3.81,5.91-1.16,1.7-3.95,2.02-4.37,2.65s-.23,2.11-.66,3.12c-.68,1.59-3.11,4.11-3.77,6.49-.91,3.29-.25,6.52-.72,9.54-.56,3.63-3.36,7.66-3.69,13.05-.13,2.04.91,6.77.76,8.38-.13,1.39-2.02,3.47-1.89,3.97.11.43,1.25.67,1.64,1.22,2.11,3.01.68,6.83-2.8,7.89-1.24.38-5.28.86-6.69.91-2.47.09-7.38-1.46-9.44-2.43s-3.23.72-5.12.84c-1.46.1-2.66-.58-4.16-.47-.79.06-6.11,1.44-6.93,1.76-1.69.67-2.21,2.73-3.79,3.77-1.16.76-4.23,1.33-4.59,1.89-.47.75-.06,2.02-.38,2.86-.65,1.7-2.22,3.55-2.53,5.57-.38,2.45.5,4.61.44,6.51-.04,1.37-.96,7.98-.75,8.33.24.4,1.38.67,1.85,1.38.68,1.03.39,2.39.88,3.44,2.48,5.25,11.24,9.14,16.32,10.68.83.25,5.98,1.8,6.31,1.77,1.03-.1,1.79-1.3,2.85-1.53,1.53-.33,2.69.44,3.59.3.64-.1,1.36-1.14,2.35-1.37,3.12-.72,6.26.37,9.73-1.56.99-.55,1.86-2.47,3.12-3.4,2.55-1.89,9.7-3.88,9.96.83.03.5-.5,5.39-.62,5.81-.4,1.37-4.16,4.23-4.23,4.53-.44,1.91-1.29,7.03-1.56,9.11-.62,4.86,1.45,4.03,2.01,6,.34,1.2-.07,2.45.4,3.92.19.6,6.15,9.97,6.7,10.58.76.86,2.43,1.08,3.4,1.85s2.17,3.41,3.48,3.71c.86.2,2.73-.62,4.21-.49,2.22.19,2.77,1.8,5.52.2.98-.57.95-1.48,1.78-2.03,1.77-1.17,3.86-2.01,5.1-4.09,1.47-2.45,4.12-13.12,4.5-16.03.14-1.05-.56-2.03-.46-3.1.78-8.14-.2-11.94,9.96-10.51,2.56.36,4.94,2.81,5.59,5.21.53,1.97-.41,3.4-.26,4.67.02.19,1.44,3.33,1.59,3.45.35.29,1.67.16,2.44.52,2.4,1.11,2.17,3.34,2.55,5.56,1.95.24,3.77,2.55,5.12,2.98s2.88.02,4.23.63c1.53.7,1.51,2.57,1.83,2.76.46.28,2.14,0,3.19.33,1.37.44,2.64,2.1,3.8,2.67,2.22,1.08,4.61.14,6.98,1.13,3.69-2.34,7.13-5.26,11.22-7.12,1.15-.52,3.56-.62,4.44-1.5s.36-2.78.76-4.1,1.85-1.86,2.43-3.51c.93-2.66.22-5.51.61-8.03.24-1.54,1.73-2.84,1.59-4.32-.12-1.16-2.22-4.72-2.59-6.65-.26-1.36.45-2.8-.06-3.65-.98-1.63-3.23-1.93-4.5-2.94s-2.18-3.48-3.8-4.46c-2.68-1.62-6.02.97-8.5-1.75-.68-.75-.95-2.32-1.61-2.71-.27-.16-5.47-2.29-5.78-2.34-1.71-.26-4.32,1.22-6.63.17-.69-.31-4.32-4.47-4.38-5.4-.15-2.45,4.15-4.9,6.23-5.71,2.71-1.06,3.72.88,5.92.58.24-.03,4.28-1.64,4.48-1.78,2.32-1.62,2.11-5.18,3.47-7.05.9-1.24,2.93-2.05,3.95-3.61.77-1.18.88-2.82,1.66-3.74,1.03-1.21,3.07-1.2,4-1.94.73-.58.84-1.62,1.41-2.37.36-.48,1.3-.67,1.58-1.12.62-.98,0-5.38-.39-6.62-.26-.84-1.3-1.18-1.5-2.3-.28-1.54.72-3.42.49-4.22-.2-.68-1.96-1.37-2.65-2.23-2.63-3.25-4.52-8.14-8.25-10.91-1.82-1.35-4.61-1.47-6.01-2.38-.65-.42-.77-1.58-1.15-1.61-.77-.06-2.29,1.34-3.35,1.56-2.04.42-6.55.67-8.41,1.26-.73.24-1.27,1.94-2.67,2.73-1.72.97-4.62.72-5.16,1.05-.19.12-.55,1.99-1.72,2.87-1.3.99-3.28.94-4.59,1.89-1.1.79-1.43,2.26-2.76,3.18s-3.36.95-3.98,1.42c-.85.64-.47,2.67-1.19,3.4-.18.18-4.34,2.15-4.59,2.2-4.49.75-5.41-8.47-3.86-11.46.53-1.02,2-1.73,2.4-3.02.61-1.94-.56-3.43-.2-5.56.5-2.94,3.35-2.36,2.46-7.03-.57-3.02-2.52-5.1-.95-9.04ZM625.28,291.56c.57-.5.04-5.45-.36-6.32-.61-1.34-2.15-1.43-3.13-2.27-.75-.64-1.04-2.01-1.88-2.44-2.84-1.44-6.44-.89-9.02-1.78-2.1-.72-3.32-3.36-5.36-4.36-3.5,2.25-6.57,2.16-10.6,1.42-.97-.18-2.04-1.31-2.82-1.31-.58,0-1.57.84-2.71.93-.61.05-5.3-.05-5.79-.14-3.11-.55-3.82-4.08-4.47-4.23-1.78.63-2.18,2.33-4.34,2.67-2.33.37-12.66.72-15,.37-1.45-.21-3.68-1.43-4.42-1.42-1.18.02-2.16,2.19-3.88,2.58-2.05.46-3.24-.48-4.74-.43-2.32.09-7.58.5-9.58,1.22-.85.31-1.22,1.26-2.31,1.47-2.95.58-7.11-1.52-10.8-1.09-1.83.21-2.78,1.34-4.34,1.6-1.97.32-4.85-.57-5.85-.38-.81.16-1.84,1.99-3.85,1.96-1.03-.02-1.89-.79-2.83-.88-2.34-.23-7.36-.3-9.51.02-.88.13-2.28,1.86-3.91,2.01-4.32.39-6.65.6-10.86,1.52-1.69.37-3.49-.15-5.18.22s-3.96,2.76-5.88,3.31c-2.82.81-7.12,1.28-10.14,2.27-3.7,1.21-9.78,3.83-12.84,5.79-.39.25-.56,1.4-1.55,1.96-1.52.87-3.55.49-5.27,1.75-1.03.76-1.4,2.14-2.52,2.88-4.26,2.8-8.38,5.7-12.42,8.63-5.88,4.27-4.21,4.35-8.07,9.22-1.05,1.33-2.72,1.52-3.51,2.43-.94,1.08-.84,3.02-2.14,4.34-1.19,1.21-2.79,1.2-4.11,2.37-5.19,4.59-10.52,11.98-15.33,17.07-1.06,1.13-2.61,1.37-3.55,2.38-1.41,1.51-2.19,4.92-3.53,6.73-.87,1.17-2.92,2.26-3.2,2.74-.54.91-.14,2.55-.51,3.81-.32,1.09-4.25,7.69-5.18,8.32-1.29.88-3.1.89-4,2.43.63,3.51-.9,11.99-3.79,14.09-.56.41-1.24.53-1.91.52,1.88,2.08,2.47,5.6.55,7.85-.42.5-1.52.63-1.65,1.16-.29,1.22.5,2.65.33,3.97-.3,2.3-2.52,3.52-2.89,5.21-.29,1.3-1.7,6.56-1.73,6.93-.17,1.97,1.28,2.81-.32,5.61-2.4,4.23-.73,1.94-1.4,5.58-.44,2.4-2.85,9.3-3.95,11.75-.91,2.02-3.55,5.02-3.97,7.42-.46,2.68,1.84,4.04.03,8.09-2.22,4.95-1.91,7.45-3.19,12.47-.62,2.43-3.38,5.59-3.86,7.53-.41,1.68.69,5.09-.36,8.24-.68,2.04-3.43,4.85-3.96,6.88-.35,1.35.42,2.31.33,3.52-.18,2.34-4.59,18.91-5.7,20.77-2.79,4.69-4.33,7.11-6.34,12.56-1.86,5.04-3.39,10.01-5.54,14.98-1.77,4.09-2.82,6.61-4.32,10.8-.75,2.09-3.91,4.42-4.33,5.93-.38,1.37.04,3.07-.24,4.62-.59,3.28-.68,3.69-.97,7.08-.17,2.01-2.02,4.37-2.11,6.62-.17,4.08-.42,9.33-.36,13.33.02,1.39.85,3.26.8,4.44-.07,1.53-1.72,2.19-1.6,4.28.12,2.2,2.19,2.89,1.65,7-.29,2.17-.78,4.51-.5,6.98.19,1.65,1.31,2.9,1.11,4.93-.14,1.43-1.36,2.14-1.14,3.72.18,1.26,1.53,3.03,1.59,5,.04,1.35-.65,2.5-.5,3.65.17,1.32,2.15,3.63,2.11,5.46-.03,1.37-2.41,4.84-2.04,6.97,4.5,2.04,2.6,2.63,2.8,5.91.08,1.27,1.2,2.54,1.42,3.88,1.02,6.12,1.19,12.6,2.33,18.73.66,3.52,2.5,6.49,3.04,9.91.35,2.19-.11,6.48.34,8.3.33,1.34,3.4,2.92,4.16,5.03s.3,4.53,1.62,6.48c.78,1.16,2,1.29,2.7,2.7.89,1.79,1.01,6.57,1.2,6.87.45.7,2.35.96,3.26,2.17.59.79,2.54,4.68,3.22,5.96,2.64,5.02,3.32,6.22,7.61,10.21,2.04,1.9,6.52,8.19,8.61,9.21,1.31.64,2.58.5,3.74,1.12,1.4.74,6.75,3.94,7.61,4.81,1.93,1.96,5.14,11.56,4.35,14.07-1.18,3.76-.46,3.16-.96,6.59-.26,1.79-2.48,5.23-2.48,5.54,0,.26,1.65,1.55,1.95,2.81.68,2.91-.78,4.5-.71,6.15.12,2.72,2.9,3.62,1.66,7.54-.81,2.55-1.7,3.15-1.19,6.64.98,6.73,4.64,16.41,6.7,22.9,1.19,3.77,2,7.68,3.48,11.36,3.77.53,5.39,3.61,7.72,5.52.43.36,5.68,3.59,6.03,3.66.75.15,2.95-1.14,4.78-1.01,2.46.18,4.82,3.12,7.06,3.26,1.29.08,2.76-.92,4.28-1.07,2.05-.2,4.13.67,5.4.55.95-.09,1.87-1.4,2.97-1.91,3.24-1.5,6.51-2.1,9.88-3.07.26-.07,4.45-2.21,4.67-2.35.91-.57,1.96-3.03,3.61-3.95,1.76-.99,4.3-1.5,6.12-3.06,1.37-1.17,1.55-2.92,2.97-4.05,2.3-1.82,5.49-3.98,7.84-5.65,1.08-.77,2.43-.58,3.23-1.1,1.03-.67,1.1-2.99,2.51-3.97,2.12-1.47,5.65-1.57,7.91-2.35.83-.29,1.55-1.32,2.52-1.8,5.51-2.69,5.87.75,9.26,3.23s5.32,2.13,8.61,3.27c1.37.47,3.51,2.2,4.69,2.35.94.12,1.84-.48,2.98-.34,1.8.21,2.87,1.98,3.93,2.08s2.07-.74,3.64-.45c2.1.39,4.92,3.2,6.19,3.57,1.66.48,4.24-.04,6.24.24,2.41.34,4.65,1.96,6.66,2.52.89.25,12.28,1.51,12.93,1.42s1.3-1.03,2.28-1.23c2.53-.51,11.49-2.48,13.32-2.29.85.09,1.83.95,2.21.93.49-.04,1.23-1.32,1.93-1.71,3.04-1.7,8.84.49,12.13,0,.49-.07,3.78-2.54,6.04-2.89,2.56-.39,5.42.27,7.83-.27,3.5-.79,10.78-6,14.06-8.08,1.98-1.25,1.66-.66,3.89-2.59,3.02-2.62,7.5.38,7.84.02-.21-4.39,2.53-4.38,5.36-5.72,1.69-.8,1.69-2.2,4.59-1.83,3.32.42,3.05,3.76,4.87,4.88,1.5.92,3.17.22,4.64,1.84,1.56,1.73.62,3.43,1.2,4.48.75,1.36,5.01,4.39,6.06,6.08.79,1.28.8,3.71,1.33,4.07.65.43,2.01.08,2.87.38,2.43.86,3.54,4.02,5.52,5.81,1.71,1.53,6.76,5.43,8.78,5.8,1.83.33,3.46-.02,5.45.49s10.54,4.8,11.15,4.86c.66.06,3.29-.21,5.06-.12,6.76.37,9.17.13,15.6-1.2,1.64-.34,4.24.14,5.69-.66.88-.49.96-2.94,2-4.07s2.45-1.01,3.5-1.9c1.11-.94,7.49-7.8,7.9-8.84,1.34-3.38.15-6.03.59-8.55.33-1.86,2.48-3.47,3.18-5.5.82-2.37.56-5.62,1.45-7.73.52-1.24,2.53-2.29,2.75-3.21s-.63-2.09-.37-3.54c.3-1.66,2.39-4.25,2.91-5.78.41-1.21.13-2.54.49-3.83s1.76-2.39,1.91-3.53c.23-1.73-1.13-3.61-1.04-5.32.07-1.49,1.56-3,1.49-3.74-.08-.9-1.85-2.6-1.95-4.54-.08-1.53.93-2.52.91-3.65-.02-1.01-1.06-1.89-1.07-3.22-.02-1.68,1.66-3.1,1.55-4.24s-1.99-2.53-1.98-4.4c0-1.7,1.62-3.93,1.97-5.52.82-3.74-.42-6.79,3.09-9.87.68-.6,2.13-.92,2.32-1.19.3-.43.13-1.64.53-2.42.58-1.11,3.27-4.58,3.34-4.87.3-1.11-.25-2.29.61-3.61.69-1.07,2.12-1.13,2.93-1.93,1.55-1.53,4.35-5.17,5.89-7.07,2.57-3.16,2.66-3.54,3.78-7.01.42-1.28,3.42-7.67,4.2-9.3.52-1.09,2.07-1.91,2.31-3.01.7-3.3.83-6.17,2-9.96s1.17-5.83,2.08-9.26c1.11-4.15,2.72-9.66,3.99-13.83.37-1.23,2.16-2.7,2.37-4.15.19-1.32-1.18-2.49-.97-4.67.1-.98,1.06-4.02,1.48-5.04.32-.78,1.6-1.66,1.61-2.03,0-.21-1.1-1.56-1.28-2.42-.74-3.4,1.82-4.11,2.29-6.48.35-1.76-.81-3.23-.09-5.45.42-1.3,2.2-2.25,2.35-3.01s-.97-2.44-1-3.73.66-2.46.59-3.74c-.13-2.33-1.26-6.36-1-8.52s3.41-4.54,3.53-7.25c.05-1.1-.81-2.12-.91-3.22-1.14-12-1.62-23.88-3.32-36.05-.35-2.48-1.38-5.36-1.58-7.65-.09-1.08.65-2.13.46-3.09-.18-.89-1.8-2.21-1.95-3.48-.39-3.31-.04-2.46-1.06-5.95-1.21-4.14-2.07-11.27-2.44-15.47-.11-1.19-1.73-3.26-1.84-4.46-.13-1.48,1.13-3.18-.32-4.91-.42-.51-1.57-.5-1.9-1.6-.4-1.31.09-3.11-.22-4.64s-2.06-3.05-2.35-4.68c-1.06-6.02-1.58-14.22-3.59-20.16-.36-1.06-1.75-1.67-2.31-3.08-1.12-2.8,0-4.56-.22-6.14-.06-.42-1.84-.69-2.12-2.37-.38-2.28-.21-6.11-.65-8.48-.77-4.07-3.3-8.42-4.16-12.09-.41-1.74-.08-4.63-.68-6.79-1.13-4-4.23-6.87-5.02-9.6s.19-5.93-.47-8.17c-.3-1-1.91-1.82-2.52-2.88-2.24-3.91-1.83-8.09-3.31-11.69-.26-.64-1.36-.45-1.89-.91-2.96-2.58-1.91-5.84-4.05-8.93-.93-1.35-5.43-4.69-6.89-5.03-1.3-.3-2.12.74-3.75.06-1.1-.46-4.47-3.45-5.91-4.39-2.21-1.45-4.39-2.53-6.51-3.74-.95-.54-2.86-2.27-3.66-2.29-.4,1.41-2.23,2.31-2.69,3.28-.43.9-.29,2.06-.71,3.07-1.48,3.55-3.99,3.29-6.33,5.55-2.62,2.53-3.32,6.61-7.55,8.15-1.77.64-2.65-.29-3.7-.09-.43.08-.88,2.02-2.51,2.52-.3.09-5.89.81-6.21.8-3.46-.09-4.82-2.53-6.62-3.15-3.72-1.28-9.62-.13-8.78-6.61-1.81.13-3.15.1-4.61-1.06-1.95-1.55-5.5-6.8-6.62-9.04s-.71-4.88-1.31-6.79c-.5-1.6-4.14-4.89-4.63-7.26s1.96-8.05-.09-9.62c-1.36-1.04-3.48,2.14-5.28,2.36-1.3.16-6.19-.97-8.01-.91-3.48.11-2.07,1.95-7.1-.5s-2.58-.93-6.89-1.21c-2.31-.15-10.75-5.7-12.47-7.51-1.06-1.12-1.37-3.04-2-3.67-.57-.57-1.8-.43-2.51-1.54-.55-.86-.39-2.1-.89-2.89s-2.34-1.38-3.17-2.77c-2.02-3.38-2.06-6.63-1.89-10.44.04-.95.85-1.97.82-2.75-.15-4.25-2.62-7.31-1.75-12.87.29-1.88,1.35-2.25,1.81-3.48,1.3-3.5,1.44-7.68,3.93-10.65,2.27-2.71,4.51-4.4,7.41-6.09s7.8-5.51,10.94-6.33,4.09.81,5.06.73c1.06-.08,3-2.26,5.74-2.37,1.49-.06,2.6.84,3.44.71.79-.12,2.17-1.76,3.45-1.92s2.98.87,4.43.39ZM813.65,455.34c-.18-.31-2.69-1.74-3.56-3.18-1-1.64-.96-3.82-1.43-4.51-.2-.29-5.06-2.37-6.1-3.08-.91-.62-1.3-1.76-1.75-2.03-.72-.44-7.12-1.12-8.67-1.59-2.13-.65-2.53-2.99-6.79-2.95-1.49.01-2.53.95-3.71.96-1.32,0-2.44-1.09-3.46-1.24-2.31-.35-8.33.13-10.49.86-.87.3-1.29,1.93-2.24,2.62-1.56,1.14-3.44.68-4.58,1.36-.7.41-1.22,2.12-2.75,2.65-1.62.57-3.08,0-4.46.4-1.22.36-3.18,3.47-5.78,2.6l5.55,19.56c.83,2.92,2.98,7.95,3.51,10.53.28,1.37-.12,2.84.23,4.09.26.91,1.74,1.63,1.97,2.94.21,1.2-.54,2.13-.46,3.1.16,1.96,3.15,8.67,3.67,10.92.62,2.68.46,6.56,1.33,9.47.54,1.81,2.41,3.42,2.57,4.49.21,1.34-.66,2.61-.45,3.63.58,2.81,2.38,6.76,3.09,10.41.62,3.2,2.55,7.52,2.74,10.29.09,1.31-.64,2.41-.52,3.67s1.39,2.43,1.59,3.87c.28,1.95-.7,3.72.03,5.63,2.19.09,2.02-2.54,2.99-3.75,4.99-6.24,9.58-12.97,14.27-19.6.45-.63,1.51-.75,1.9-1.48,1.61-3.06,1.38-6.81,5.1-10.03.92-.79,2.21-.81,3.01-1.85,1.14-1.49.46-3.42,1.7-5.27.93-1.4,3.19-3.45,4.22-5.02,1.4-2.12,2.67-5.79,4.6-7.82,1.15-1.21,3.09-1.17,3.84-2.1.7-.86.61-2.57,1.18-3.68,2.08-4.08,4.31-5.47,4.74-10.91.34-4.32-1.35-4.74-1.64-7.09-.17-1.45.59-2.57.52-3.71-.24-4-4.19-7.87-5.14-10.53-.3-.84-.03-2.02-.37-2.6ZM302.4,578.34l-2.12.87c1.78,5.08-1.63,6.77-4.93,9.64s-5.22,6.69-8.59,9.76c-2.22,2.02-7.25,5.04-9.88,6.32-.77.37-2.32.3-2.5.47-.19.19-.12,1.84-.42,2.54-1.29,2.98-4.88,5.88-8.06,6.55.31,2.51.61,4.08-.48,6.51-.71,1.58-5.09,6.42-5.17,6.85-.17.9.63,2.02.37,3.43-.41,2.18-2.52,2.85-2.92,4.15-.81,2.62.24,6.19-3.89,7.19,1.53,1.81,2.07,3.74,1.51,6.09-.29,1.21-1.47,1.81-1.56,3.35-.12,2.05,1.58,3.66,1.64,5.44.04,1.08-.66,2.08-.53,3.17.15,1.22,1.7,1.87,2.22,3.22.6,1.55.23,3,.61,4.25.36,1.17,2.16,1.8,2.48,2.92.3,1.05-.16,2.75.19,3.32.08.13,1.87.7,2.65,1.4,1.75,1.58,2.04,4.09,2.81,5.02.15.19,3.78,2.67,4.02,2.73,1.35.39,7.55.8,9.08.65,2.29-.23,5.18-1.88,7.14-2.05,4.16-.36,4.17-.03,8.65-1.06,3.07-.71,6.96-.18,9.99-1.22.63-.22.74-1.33,1.48-1.87,1.52-1.12,3.63-1.54,5.4-.81,1.01-2.41-.61-3.14-.97-4.71-1.34-5.84-1.73-11.85-2.83-17.69-.22-1.19-1.34-1.85-1.57-3.29-.33-2,.32-4.49-.05-6.43-.41-2.16-1.69-5.66-2.13-8.16-.63-3.58.98-9.66.49-12.89-.23-1.49-1.38-2.8-1.55-4.42s.62-3.29.42-4.15c-.21-.9-1.94-1.63-2.05-3.37s1.14-4.73,1.04-6.43c-.1-1.58-1.92-2.83-1.62-4.86.18-1.22,1.6-1.65,1.63-2.71s-1.27-2.24-1.49-3.39c-.49-2.58.94-6.93.85-7.88-.07-.66-.9-1.32-.93-2.24s1.95-5.88,1.57-6.22Z"/>
    <path d="M888.36,290.45c3.05.75.79,5,.68,7.45-.23,4.96,1.06,10.93.86,16.09-.05,1.2-1.06,2.86-.88,4.8.08.87,1.03,1.61.92,2.76s-1.44,1.6-1.57,2.26c-.14.73.82,1.49.92,2.23,1,7.32-.82,14.22-.4,20.95.05.86,1.05,1.44,1.06,2.64.06,5.24-.73,10.46-.87,15.68-.03,1.19.96,2.59.83,3.77-.1.82-1.03,1.42-1.06,2.18-.03.71.93,1.95,1.08,3.23.24,2.04-.42,3.55-.51,5.36-.32,6.62-.08,13.59-.05,20.57.03,6.48-.05,12.92.1,19.45.23,9.94-.71,19.85-.44,29.61.07,2.53,1,5.85.93,8.19-.05,1.76-1.23,3.05-1.14,4.27.07.96.97,1.7,1.02,2.71.06,1.23-.9,2.96-.9,4.35,0,3.33.98,7.37.79,11.26-.16,3.3.04,4.04.12,7.16.14,5.48-.98,12.27-.72,18.11.07,1.57,1.31,2.64.24,4.41-.23.38-1.12.33-1.12.66.02.77.88,1.46.97,2.2.5,4.38.13,9.49.16,13.94.02,2.76.33,2.53.55,4.4.11.97-1.09,2.07-1.17,3.72-.24,5.55.22,13.38.22,19.39,0,28.42,0,57.89-.06,87.08-.15,20.3.2,40.5-.15,60.94-.23,13.49.86,27.14.06,40.51-.11,1.77-.54,3.65-.57,4.83-.03,1.45,1.08,3.43.93,4.81-.11.98-1.33,2.26-1.22,3.3.7,7.07.92,9.53.28,16.72-.35,3.91,1.3,8.81,1.15,12.45-.06,1.4-1.09,2.38-1.16,3.79-.07,1.6.87,2.67.95,3.85s.19,5.48.13,6.45c-.07,1.17-1.49,1.71-1.5,2.11,0,.32,1.32,1.31,1.43,2.25.09.83-1.07,2.28-.88,3.69.39,2.98.71,3.42.33,6.91-.46,4.17.53,4.34.52,7.24-.02,6.97-.73,14.56-.84,21.5-.02,1.53,1.48,3.55-1.04,4.46-.46.17-3.71.7-4.22.69-3.92-.07-2.4-5.33-2.46-7.34-.03-.96-.92-1.63-.89-2.57.04-1.1,1.29-2.49,1.28-3.34s-1.23-3.7-1.32-4.83c-.37-5.02.96-11.62.9-16.78-.02-1.63-1.11-4.96-.98-6.98.09-1.4,1.62-2.3,1.6-3.26,0-.66-.97-1.48-1.12-2.69-.18-1.38.06-4.72.03-6.47-.21-12.82.27-25.38.35-38.27s.3-25.29.1-37.89c-.11-6.67-.09-12.81.4-19.42.1-1.32-.92-3.09-.86-4.37s1.11-1.93,1.11-2.67c0-.64-.98-1.48-1.12-2.69-.32-2.81.83-8.99.82-12.43-.02-6.8-.99-13.7-.82-20.53.13-5.01,1.07-8.89.62-13.53-.59-6.04.15-13.39,0-19.38-.15-5.49.65-11.02.45-16.25-.04-1.08-1.09-1.95-1.06-3.22s1.09-1.89,1.11-2.69c.03-.85-.97-1.77-1.08-2.76-.17-1.6.96-2.18.96-3.08.03-3.73-.87-8.14-.39-12.5.55-4.95-.2-9.73.02-15.05.05-1.16.91-2.49.9-3.43-.02-1.08-1.55-3.12-1.52-5.3.02-1.73.97-2.93,1.03-4.3.06-1.46-.99-4.05-.92-5.45.05-.98.9-1.66.94-2.64.07-1.45-1.06-3.6-1.03-5.4.03-1.7,1.12-3.78,1.1-5.44-.02-1.44-1.11-2.81-1.06-3.8.06-1.15,1.62-1.46,1.65-3.2s-1.64-2.75-1.65-3.79c0-.79.8-1.46.82-2.14.36-15.97-.94-32.31.69-48.17.08-.78-1.3-2-1.37-3.23-.06-1.12.85-2.09.9-3.2.14-3.12-.3-6.48-.08-10.22.46-7.73.17-15.66-.42-23.29-.25-3.16,1.1-7.92,1-10.22-.04-1.06-1.06-1.91-1.06-3.22s1.1-2.28,1.09-3.24-1.03-1.76-1.03-2.7,1.07-1.78,1.04-2.7c-.02-.7-.96-1.46-1.09-2.67-.44-4.02,1.16-8.13,1.05-10.85-.38-9.53-1.3-19.69-.94-29.6.94-26.13-.28-53.51.58-79.99.2-6.32-1.03-13.66-.67-19.42.16-2.53,2.05-5.26,1.91-7.6-.08-1.37-1.15-2.15-1.34-3.26-.77-4.45-.04-12.45-.04-17.21-.02-19.3.2-38.66.89-57.8.05-1.24-1.37-4.97-1.38-5.94,0-1.1,1.59-3.34,1.58-4.94-.01-1.25-.9-1.69-1.05-2.65-.2-1.33-.05-5.86.01-7.51s.8-10.07,1.33-11.07c1.01-1.91,4.03-1.94,5.63-.8,2.43,1.74,1.4,9.46,1.37,12.43-.03,2.66-.51,4.13-.6,5.92-.03.55.88,1.52.89,2.67.07,6.03.38,13.69.01,19.47-.11,1.74-1.54,3.96-1.51,4.31.03.4,1.07,1.07,1.36,1.75,1.19,2.74-.79,9.37-.72,12.85.14,7.87.87,16.19.88,24.28,0,3.91.33,9.25-.03,12.98-.12,1.3-1.12,2.48-1.08,3.23.04.8,1.03,1.36,1.06,2.15s-.84,1.51-.92,2.23c-.18,1.72.87,4.98.95,6.93.2,4.98-.85,10-.82,14.59.02,3,1.06,6.72.84,9.76-.16,2.17-1.33,2.62-1.6,4.49Z"/>
    <path d="M204.53,906.53c-2.69,1.43-7.61-.06-7.97-3.39-.15-1.39,1.15-3.59,1.13-5.4s-1.03-2.65-1.11-3.79c-.25-3.65-.01-10.85-.04-15.08-.01-2.25-.07-13.18.25-14.35.2-.72,1.31-1.59,1.31-1.88,0-.35-1.04-.86-1.26-1.35-.63-1.36.12-4.4.11-6.18-.12-16.05-.86-32.33-.31-48.55.31-9.24.42-18.68.52-28.15.08-7.53-1.46-17.42-.63-24.88.17-1.56,1.21-2.82,1.14-3.7-.08-.94-1.24-1.83-1.37-3.27-.17-1.89.77-4.67.78-6.52.03-7.81-.18-15.35-.07-23.2.14-9.5.6-20.5.05-30.18-.06-1.07-.72-2.16-.74-3.29-.05-2.2,1.51-4.14,1.39-5.95-.08-1.27-1.08-2.04-1.19-3.76-.34-5.54.44-12.63.48-18.38.08-12-.43-23.54-.42-35.64,0-4.46.59-8.18.04-12.46-.42-3.24-.3-13.21-.06-16.69.12-1.78,1.53-3.42,1.52-4.24-.03-1.21-1.49-2.43-1.56-3.88-.09-1.7,1.07-2.34,1.16-3.27.1-1.13-1.05-1.87-1.15-3.19-.64-8.66.67-19.78.63-28.63-.04-9.98-1.32-21.29-.6-31.28.11-1.57,1.23-3.6,1.08-4.87-.72-6.48-1.09-11.72-1.04-18.36.02-2.95-.34-7.58.02-10.24.59-4.32,1.32-2.38.54-7.66-2.09-14.29-.2-31.65-.11-46.44.02-3.16-1.15-9.82-.87-12.3.09-.82.95-1.55.96-2.77,0-1.38-1.17-2.39-1.16-3.78,0-1.27.89-1.98,1.01-2.82.2-1.35-.83-2.63-.83-3.77,0-2,.33-2.43.13-5.29-.47-6.56.75-12.62.86-18.9.04-2.3-.9-5.76-.64-8.1,1.1-9.85-.11-21.17.01-31.31.05-4.33.19-8.87.06-13-.06-1.77-.27-4.28-.06-5.94.15-1.22,1.11-2.05,1.12-2.68.02-1.04-1.51-1.47-1.64-2.69s.94-2.9.98-4.31c.14-4.65-.44-10-.42-14.6.02-2.96-.55-5.36-.6-7.53-.03-1.46,1.17-2.87,1.15-4.35-.02-1.3-1.09-2.31-1.01-3.15.1-.96,1.5-1.75,1.42-2.69s-1.45-2.11-1.52-3.38c-.06-.98.53-3.2.52-5.38-.07-12.02.08-23.96.04-36.13-.01-4.01.31-7.72.53-11.41.07-1.16-1.07-1.88-1.15-3.18-.05-.83,1.32-9.28,1.61-9.68,1.53-1.06,6.42-.66,7.38.75,1.18,1.74-.05,9.4-.22,11.7-.42,5.68.16,11.1.03,17.21-.29,13.95.57,28.14.44,42.12-.01,1.48-1.1,3.19-1.03,4.34.05.84,1.02,1.58,1.09,3.2.26,5.72.43,15.98-.03,21.64-.32,3.91-.5,8.15-.57,12.39-.34,20.57.67,41.54.53,62.64-.05,8.29-.88,16.86-.54,24.84.15,3.53-.38,4.49-.47,6.99s1.41,6.57,1.29,8.68c-.07,1.24-1.08,2.06-1.14,2.7-.19,2.13.44,9.66.43,12.95-.1,22.8-.05,45.55.4,68.6.08,4.26-.44,3.53-.89,6.54-.21,1.44.87,4.6.93,6.37.24,7.1-.3,14.97-.46,22.16-.06,2.53-.65,3.98-.68,5.38s1.13,3.04,1.17,4.88c.09,4.61-.43,10.11-.39,14.67.02,2.68,1.02,7.03.72,9.56-.12,1.01-1.28,2.19-1.24,3.31.35,8.67.97,18.03,1.37,26.49.09,1.95-1.6,4.27-1.57,5.37s1.35,1.74,1.46,2.75c.44,4.16-.64,9.84-.45,14.58.25,6.01.13,12.07.05,18.3-.02,1.7-1.08,4.39-1.01,5.97.05,1.09,1.09,1.95,1.06,3.22-.06,2.64-1.22,7.73-1.1,10.75.07,1.79,1.63,3.73,1.63,5.98,0,4.6-1.09,10.28-1.13,15.12-.04,4.56.69,9.78.55,14.55-.07,2.66-1.42,13.15-.99,14.5.26.83,1.41,1.15,1.48,2.23.1,1.51-.96,5.1-.88,7.45.57,18.23-.02,36.05.9,54.14-.72,14.32-.53,28.55-.53,42.67s.35,27.38-.23,41.58c-.12,2.97-.6,5.37-.74,7.65-.05.8,1.1,1.74,1.25,2.8.17,1.23-.76,5.72-.67,7.49.07,1.35,1.17,4.2.85,6.25-.16.99-1.24,1.47-1.26,2.58-.04,1.79,1.33,3.17,1.41,4.55.05.83-.83,6.18-1.26,6.63Z"/>
    <path class="cls-2" d="M625.28,291.56c-1.46.47-3.13-.56-4.43-.39s-2.66,1.8-3.45,1.92c-.84.13-1.94-.77-3.44-.71-2.74.11-4.68,2.29-5.74,2.37-.97.08-1.92-1.55-5.06-.73s-7.94,4.59-10.94,6.33-5.15,3.38-7.41,6.09c-2.49,2.97-2.62,7.16-3.93,10.65-.46,1.23-1.52,1.6-1.81,3.48-.87,5.56,1.6,8.62,1.75,12.87.03.78-.78,1.79-.82,2.75-.17,3.82-.13,7.06,1.89,10.44.83,1.39,2.66,1.97,3.17,2.77s.34,2.03.89,2.89c.71,1.11,1.94.97,2.51,1.54.63.62.95,2.55,2,3.67,1.72,1.82,10.16,7.37,12.47,7.51,4.3.27,2.08-1.14,6.89,1.21s3.62.61,7.1.5c1.82-.06,6.71,1.08,8.01.91,1.8-.22,3.92-3.4,5.28-2.36,2.05,1.57-.4,7.22.09,9.62s4.13,5.66,4.63,7.26c.6,1.91.19,4.55,1.31,6.79s4.67,7.49,6.62,9.04c1.46,1.16,2.79,1.19,4.61,1.06-.84,6.48,5.06,5.33,8.78,6.61,1.8.62,3.16,3.06,6.62,3.15.32,0,5.91-.71,6.21-.8,1.63-.5,2.08-2.44,2.51-2.52,1.04-.19,1.93.74,3.7.09,4.23-1.54,4.94-5.62,7.55-8.15,2.34-2.26,4.85-2,6.33-5.55.42-1.01.28-2.17.71-3.07.46-.97,2.29-1.87,2.69-3.28.8.02,2.71,1.75,3.66,2.29,2.12,1.21,4.3,2.29,6.51,3.74,1.44.94,4.81,3.93,5.91,4.39,1.64.68,2.46-.36,3.75-.06,1.46.34,5.96,3.69,6.89,5.03,2.14,3.09,1.09,6.35,4.05,8.93.53.46,1.62.27,1.89.91,1.48,3.6,1.06,7.78,3.31,11.69.61,1.06,2.23,1.88,2.52,2.88.67,2.24-.33,5.4.47,8.17s3.89,5.6,5.02,9.6c.61,2.16.27,5.05.68,6.79.87,3.67,3.4,8.01,4.16,12.09.45,2.37.27,6.19.65,8.48.28,1.68,2.07,1.96,2.12,2.37.21,1.58-.9,3.33.22,6.14.56,1.42,1.95,2.03,2.31,3.08,2.01,5.93,2.53,14.14,3.59,20.16.29,1.63,2.03,3.07,2.35,4.68s-.18,3.33.22,4.64c.33,1.1,1.48,1.09,1.9,1.6,1.44,1.74.19,3.43.32,4.91.11,1.19,1.73,3.26,1.84,4.46.37,4.19,1.23,11.33,2.44,15.47,1.02,3.49.67,2.64,1.06,5.95.15,1.27,1.77,2.59,1.95,3.48.19.96-.55,2.01-.46,3.09.2,2.29,1.23,5.17,1.58,7.65,1.7,12.17,2.18,24.04,3.32,36.05.1,1.1.97,2.12.91,3.22-.13,2.71-3.27,4.99-3.53,7.25s.87,6.19,1,8.52c.07,1.28-.63,2.45-.59,3.74s1.16,2.97,1,3.73-1.93,1.71-2.35,3.01c-.71,2.22.44,3.68.09,5.45-.46,2.37-3.03,3.08-2.29,6.48.19.86,1.29,2.21,1.28,2.42-.01.37-1.3,1.25-1.61,2.03-.41,1.02-1.38,4.06-1.48,5.04-.21,2.18,1.16,3.35.97,4.67-.21,1.45-2,2.93-2.37,4.15-1.27,4.17-2.88,9.68-3.99,13.83-.92,3.43-.94,5.55-2.08,9.26s-1.3,6.66-2,9.96c-.23,1.11-1.79,1.92-2.31,3.01-.77,1.63-3.78,8.02-4.2,9.3-1.13,3.48-1.22,3.85-3.78,7.01-1.54,1.9-4.34,5.54-5.89,7.07-.81.8-2.24.86-2.93,1.93-.86,1.33-.31,2.5-.61,3.61-.08.29-2.77,3.75-3.34,4.87-.41.79-.23,1.99-.53,2.42-.19.27-1.64.59-2.32,1.19-3.51,3.08-2.27,6.13-3.09,9.87-.35,1.59-1.96,3.83-1.97,5.52,0,1.87,1.87,3.3,1.98,4.4s-1.56,2.56-1.55,4.24c.01,1.33,1.05,2.22,1.07,3.22.02,1.13-.99,2.12-.91,3.65.1,1.95,1.86,3.65,1.95,4.54.07.74-1.42,2.25-1.49,3.74-.08,1.71,1.28,3.59,1.04,5.32-.15,1.14-1.56,2.28-1.91,3.53s-.09,2.62-.49,3.83c-.51,1.53-2.6,4.12-2.91,5.78-.27,1.45.58,2.66.37,3.54s-2.23,1.98-2.75,3.21c-.89,2.11-.63,5.36-1.45,7.73-.7,2.03-2.85,3.64-3.18,5.5-.44,2.51.75,5.16-.59,8.55-.41,1.04-6.79,7.9-7.9,8.84-1.05.89-2.47.77-3.5,1.9s-1.12,3.59-2,4.07c-1.44.8-4.05.32-5.69.66-6.42,1.33-8.84,1.57-15.6,1.2-1.77-.1-4.4.18-5.06.12-.61-.06-9.2-4.35-11.15-4.86s-3.61-.16-5.45-.49c-2.03-.37-7.08-4.26-8.78-5.8-1.98-1.78-3.09-4.95-5.52-5.81-.86-.3-2.22.05-2.87-.38-.54-.35-.55-2.79-1.33-4.07-1.05-1.7-5.31-4.73-6.06-6.08-.58-1.05.36-2.75-1.2-4.48-1.47-1.63-3.14-.93-4.64-1.84-1.83-1.12-1.55-4.46-4.87-4.88-2.9-.37-2.9,1.03-4.59,1.83-2.82,1.34-5.56,1.33-5.36,5.72-.34.36-4.82-2.63-7.84-.02-2.22,1.93-1.91,1.34-3.89,2.59-3.28,2.08-10.57,7.29-14.06,8.08-2.4.54-5.26-.12-7.83.27-2.26.35-5.55,2.82-6.04,2.89-3.29.49-9.09-1.71-12.13,0-.69.39-1.43,1.67-1.93,1.71-.37.03-1.36-.83-2.21-.93-1.82-.2-10.79,1.77-13.32,2.29-.98.2-1.65,1.14-2.28,1.23s-12.03-1.18-12.93-1.42c-2-.56-4.25-2.18-6.66-2.52-2-.28-4.57.24-6.24-.24-1.28-.37-4.09-3.19-6.19-3.57-1.57-.29-2.56.55-3.64.45s-2.12-1.86-3.93-2.08c-1.14-.13-2.04.46-2.98.34-1.18-.15-3.32-1.87-4.69-2.35-3.3-1.14-5.17-.75-8.61-3.27s-3.75-5.92-9.26-3.23c-.97.48-1.69,1.51-2.52,1.8-2.26.78-5.8.88-7.91,2.35-1.41.98-1.48,3.29-2.51,3.97-.8.52-2.15.34-3.23,1.1-2.34,1.67-5.53,3.83-7.84,5.65-1.42,1.12-1.6,2.88-2.97,4.05-1.82,1.55-4.37,2.07-6.12,3.06-1.65.93-2.7,3.38-3.61,3.95-.22.14-4.42,2.28-4.67,2.35-3.37.97-6.64,1.57-9.88,3.07-1.1.51-2.02,1.81-2.97,1.91-1.26.12-3.35-.75-5.4-.55-1.52.15-2.99,1.15-4.28,1.07-2.24-.14-4.6-3.08-7.06-3.26-1.82-.13-4.03,1.16-4.78,1.01-.35-.07-5.59-3.31-6.03-3.66-2.32-1.91-3.94-4.99-7.72-5.52-1.49-3.68-2.29-7.6-3.48-11.36-2.05-6.49-5.72-16.17-6.7-22.9-.51-3.49.39-4.09,1.19-6.64,1.24-3.91-1.54-4.82-1.66-7.54-.07-1.65,1.39-3.24.71-6.15-.29-1.25-1.95-2.55-1.95-2.81,0-.31,2.22-3.75,2.48-5.54.5-3.43-.22-2.82.96-6.59.79-2.51-2.42-12.11-4.35-14.07-.86-.87-6.21-4.07-7.61-4.81-1.16-.62-2.43-.47-3.74-1.12-2.09-1.02-6.57-7.32-8.61-9.21-4.29-3.99-4.97-5.19-7.61-10.21-.67-1.28-2.63-5.18-3.22-5.96-.91-1.21-2.81-1.47-3.26-2.17-.19-.3-.31-5.08-1.2-6.87-.7-1.41-1.92-1.54-2.7-2.7-1.31-1.95-.87-4.39-1.62-6.48s-3.83-3.69-4.16-5.03c-.45-1.82.01-6.1-.34-8.3-.55-3.43-2.39-6.39-3.04-9.91-1.14-6.13-1.32-12.61-2.33-18.73-.22-1.34-1.34-2.61-1.42-3.88-.2-3.27,1.7-3.87-2.8-5.91-.37-2.13,2.01-5.6,2.04-6.97.04-1.83-1.94-4.13-2.11-5.46-.15-1.15.55-2.3.5-3.65-.06-1.97-1.41-3.74-1.59-5-.23-1.58,1-2.29,1.14-3.72.2-2.03-.92-3.28-1.11-4.93-.28-2.47.21-4.81.5-6.98.55-4.11-1.53-4.81-1.65-7s1.54-2.75,1.6-4.28c.05-1.19-.78-3.05-.8-4.44-.06-4,.19-9.26.36-13.33.09-2.25,1.94-4.61,2.11-6.62.29-3.39.38-3.8.97-7.08.28-1.55-.14-3.25.24-4.62.42-1.51,3.59-3.84,4.33-5.93,1.5-4.19,2.55-6.71,4.32-10.8,2.15-4.97,3.68-9.94,5.54-14.98,2.01-5.45,3.55-7.87,6.34-12.56,1.11-1.86,5.52-18.43,5.7-20.77.09-1.21-.68-2.17-.33-3.52.53-2.03,3.28-4.84,3.96-6.88,1.04-3.14-.05-6.56.36-8.24.47-1.94,3.24-5.1,3.86-7.53,1.28-5.02.97-7.52,3.19-12.47,1.81-4.05-.49-5.41-.03-8.09.41-2.4,3.06-5.39,3.97-7.42,1.11-2.46,3.51-9.36,3.95-11.75.67-3.63-1-1.35,1.4-5.58,1.59-2.81.15-3.65.32-5.61.03-.36,1.44-5.63,1.73-6.93.38-1.69,2.6-2.92,2.89-5.21.17-1.32-.62-2.75-.33-3.97.13-.53,1.23-.66,1.65-1.16,1.92-2.26,1.33-5.78-.55-7.85.67,0,1.35-.12,1.91-.52,2.88-2.1,4.42-10.58,3.79-14.09.9-1.54,2.71-1.55,4-2.43.93-.63,4.86-7.23,5.18-8.32.37-1.26-.02-2.89.51-3.81.28-.47,2.33-1.56,3.2-2.74,1.35-1.81,2.12-5.22,3.53-6.73.95-1.01,2.49-1.26,3.55-2.38,4.81-5.09,10.14-12.48,15.33-17.07,1.32-1.17,2.92-1.16,4.11-2.37,1.3-1.32,1.2-3.26,2.14-4.34.79-.91,2.46-1.1,3.51-2.43,3.86-4.88,2.19-4.95,8.07-9.22,4.04-2.93,8.16-5.83,12.42-8.63,1.12-.74,1.49-2.12,2.52-2.88,1.72-1.26,3.75-.88,5.27-1.75.98-.57,1.15-1.71,1.55-1.96,3.06-1.96,9.14-4.58,12.84-5.79,3.02-.99,7.32-1.46,10.14-2.27,1.92-.55,4.21-2.94,5.88-3.31s3.49.15,5.18-.22c4.21-.92,6.54-1.13,10.86-1.52,1.63-.15,3.03-1.88,3.91-2.01,2.15-.32,7.17-.25,9.51-.02.94.09,1.8.86,2.83.88,2.01.03,3.03-1.8,3.85-1.96.99-.19,3.87.7,5.85.38,1.55-.25,2.51-1.38,4.34-1.6,3.69-.43,7.85,1.67,10.8,1.09,1.09-.21,1.46-1.17,2.31-1.47,1.99-.72,7.25-1.14,9.58-1.22,1.51-.06,2.69.89,4.74.43,1.72-.39,2.7-2.56,3.88-2.58.74-.01,2.97,1.2,4.42,1.42,2.34.34,12.67,0,15-.37,2.16-.34,2.56-2.04,4.34-2.67.65.15,1.36,3.67,4.47,4.23.49.09,5.18.19,5.79.14,1.14-.08,2.12-.92,2.71-.93.78,0,1.85,1.13,2.82,1.31,4.03.74,7.1.83,10.6-1.42,2.04,1,3.26,3.64,5.36,4.36,2.59.89,6.18.34,9.02,1.78.84.42,1.14,1.79,1.88,2.44.98.84,2.51.93,3.13,2.27.4.86.92,5.82.36,6.32ZM468.82,486.46c-.35-.2-.29-1.56-2.14-1.98-.62-.14-4.42-.14-5.21-.09s-1.7.91-2.2.89c-.56-.03-1.47-1.37-2.74-1.44-1.16-.07-1.87.8-2.65.85-3.16.2-2.24-.28-6.06.56-3.1.68-7.56-.22-9.54.82-.94.49-1.55,1.74-2.65,2.22s-3.97.16-5.4.54-1.87,1.47-2.96,1.9c-3.49,1.37-7.04.96-9.05,5.55-1.26.01-2-2-2.98-2.42-1.2-.52-2.89-.11-3.95-.78-.63-.39-.72-1.8-1.42-2.49-1.78-1.77-10.87-8.96-12.71-5.12-.61,1.28-.91,6-.38,7.41,1.4,3.71,5.87,4.58,7.83,6.6,3.73,3.85,3.77,4.35,8.66,7.15,1.33.77,1.34,2.75,3.84,2.59,1.82-.11,4.69-4.4,6.83-5.62,1.48-.85,4.7-1.53,6.29-2.35,1.01-.52,2.01-2.03,2.64-2.15.79-.15,2.28.67,3.7.42,1.09-.19,1.44-1.2,2.31-1.49,6.08-1.99,18.87-2.69,25.11-1.63.76.13,1.47.9,2.33.96,1.25.08,2.2-.97,2.67-.94.42.03,1.25,1.26,2.03,1.6,3.67,1.57,8.92,2.62,12.79,3.95,1.26.43,2.03,2.44,4.88,1.06,1.69-.82,1.07-2.61,1.44-3.51.72-1.76,2.67-2.86,1.2-5.07-.12-.18-2.84-2.95-3.02-3.07-1.2-.76-3.85.11-5.69-.65s-2.38-2.84-5.26-3.42c-1.02-.21-1.86.28-2.72.09-.93-.21-1.79-1.3-2.98-1.36-.91-.05-2.21.81-2.84.44ZM650.23,491.36c-.23-.17-.27-1.41-1.15-1.85-5.59-2.82-15.29-3.62-21.48-4.45-5.15-.69-3.36.44-6.45,1.36-1.97.59-3.55-.44-5.16-.31-2.04.17-6.77,3.04-8.54,3.89-2.84,1.37-10.15,3.89-10.25,7.57-.02.64.79,4.9,1.06,5.34,1.7,2.77,4.79-.63,5.99-1.04,1.08-.36,2.39.23,3.89-.36,1.74-.69,3.88-2.96,5.69-3.51,5.77-1.77,11.85-.24,17.14-.63,1.22-.09,2.5-1.13,3.15-1.02.61.11,1.25,1.1,1.96,1.28,8.95,2.26,14.6,4.27,22.13,9.18,1.87,1.22,1.74,1.43,4.31,2.71,2.2,1.1,2.11,2.4,5.68,1.82,2.39-.39,3.17-2.45,4.47-3.21,1.86-1.09,5.45-1.91,7.15-3.54.79-.76,1.02-2.33,1.63-2.69,1.56-.91,5.03-1.3,7.54-3.26,1.5-1.17,1.34-2.35,1.79-2.8,1.35-1.34,4.15.33,3.6-4.68-.33-3.05-2.52-5.18-5.64-5.14-1.2.02-1.83,1.11-2.83,1.43-3.85,1.23-3.58.93-6.81,3.45-2.7,2.11-5.6,4.55-8.47,6.08-4.65,2.48-3.63,1.56-8.03.02-.8-.28-2.18-.02-2.64-.32-.29-.19-.4-1.64-1.18-2.33-.71-.62-1.9-.62-2.65-1.13-.9-.61-1.74-2.06-2.59-2.3-1.27-.36-3.03.62-3.32.41ZM576.87,572.01c.73-.93,4.06-2.71,4.73-3.63,1.24-1.7.84-4.92,1.43-6.08.63-1.22,2.16-1.42,2.64-2.85.62-1.82.4-5.73-1.7-6.47-4.42-1.56-4.66,1.39-8.21,2.81-1.02,1.3-1.02,4.88-2.01,5.82-.65.61-1.86.49-2.73,1.05-1.59,1.01-1.8,2.92-2.55,3.66-.53.53-1.76.56-2.58,1.47-1.07,1.18-.99,2.95-1.93,4.11-1.74.26-7.11-2.03-8.47-3.25s-2.98-6.06-4.13-7.34c-.32-.36-4.25-2.89-4.64-2.95-2.75-.49-2.62,1.12-4.06,1.86-.89.46-2.53.42-3.09.96-.53.52-1.38,5.95-2.39,6.78-.35.29-1.86.18-2.8.71-1.06.6-1.36,1.98-1.47,2.04-.17.1-.83-.4-1.25-.34-3.41.46-2.74.1-5.56-.54-1.03-.24-2.75.11-3.43-.35-.63-.43-.49-2.42-.91-3.41-.66-1.56-2.21-1.8-2.67-2.46-.73-1.04-1.11-3.83-2.4-5.43-2.86-3.52-9.42-5.77-12.82-1.61-.02,3.19,1.36,6.06,3.18,8.58.35.49,1.36.62,1.51.89.34.59.02,2.1.36,3.16,1.17,3.66,4.42,4.31,6.27,6.16.98.98,1.06,2.72,2.69,3.79,5.17,3.38,12.16,3.02,17.83,1.66,3.38-.81,3.64-2.41,5.4-3.24,2-.95,3.76-.18,5.37-2.99.81,1.94,5.67,6.17,7.57,6.79.79.26,1.58-.21,2.17,0,.79.29,1.29,1.59,2.96,1.6s3.01-1.61,3.77-1.69c.97-.1,2.16.86,3.56.62,2.44-.42,7.88-4.38,9.16-6.5.68-1.13.54-2.51,1.22-3.38Z"/>
    <path class="cls-2" d="M685.26,257.04c-1.57,3.93.38,6.01.95,9.04.89,4.67-1.96,4.09-2.46,7.03-.36,2.12.81,3.62.2,5.56-.4,1.28-1.87,1.99-2.4,3.02-1.55,2.99-.63,12.21,3.86,11.46.25-.04,4.41-2.01,4.59-2.2.72-.73.34-2.76,1.19-3.4.62-.46,2.69-.54,3.98-1.42s1.66-2.38,2.76-3.18c1.32-.95,3.29-.9,4.59-1.89,1.16-.88,1.52-2.75,1.72-2.87.54-.33,3.44-.09,5.16-1.05,1.41-.79,1.94-2.49,2.67-2.73,1.86-.6,6.37-.84,8.41-1.26,1.06-.22,2.58-1.62,3.35-1.56.38.03.5,1.18,1.15,1.61,1.4.91,4.19,1.03,6.01,2.38,3.73,2.77,5.63,7.67,8.25,10.91.69.86,2.46,1.56,2.65,2.23.23.8-.77,2.68-.49,4.22.2,1.13,1.24,1.46,1.5,2.3.38,1.24,1.01,5.64.39,6.62-.28.45-1.22.64-1.58,1.12-.57.75-.68,1.79-1.41,2.37-.93.74-2.98.73-4,1.94-.78.92-.89,2.56-1.66,3.74-1.02,1.56-3.04,2.37-3.95,3.61-1.37,1.87-1.15,5.43-3.47,7.05-.2.14-4.24,1.75-4.48,1.78-2.21.29-3.21-1.64-5.92-.58-2.08.81-6.39,3.27-6.23,5.71.06.93,3.69,5.08,4.38,5.4,2.31,1.06,4.93-.43,6.63-.17.31.05,5.51,2.17,5.78,2.34.65.39.93,1.97,1.61,2.71,2.49,2.72,5.82.13,8.5,1.75,1.62.98,2.51,3.43,3.8,4.46s3.52,1.31,4.5,2.94c.51.85-.2,2.29.06,3.65.37,1.94,2.48,5.49,2.59,6.65.15,1.48-1.35,2.78-1.59,4.32-.39,2.52.32,5.37-.61,8.03-.58,1.66-2.02,2.2-2.43,3.51s.13,3.21-.76,4.1-3.29.97-4.44,1.5c-4.09,1.86-7.53,4.78-11.22,7.12-2.37-.99-4.77-.05-6.98-1.13-1.16-.57-2.43-2.24-3.8-2.67-1.04-.33-2.73-.04-3.19-.33-.31-.19-.3-2.06-1.83-2.76-1.35-.62-2.85-.2-4.23-.63s-3.17-2.73-5.12-2.98c-.38-2.22-.15-4.45-2.55-5.56-.77-.36-2.09-.23-2.44-.52-.15-.12-1.57-3.26-1.59-3.45-.15-1.27.79-2.7.26-4.67-.64-2.41-3.03-4.85-5.59-5.21-10.16-1.44-9.19,2.37-9.96,10.51-.1,1.06.6,2.04.46,3.1-.38,2.91-3.04,13.58-4.5,16.03-1.24,2.08-3.33,2.92-5.1,4.09-.83.55-.8,1.46-1.78,2.03-2.75,1.61-3.3,0-5.52-.2-1.48-.13-3.36.69-4.21.49-1.31-.3-2.53-2.95-3.48-3.71s-2.64-1-3.4-1.85c-.55-.61-6.51-9.99-6.7-10.58-.47-1.47-.06-2.72-.4-3.92-.56-1.97-2.63-1.14-2.01-6,.27-2.09,1.12-7.21,1.56-9.11.07-.3,3.83-3.16,4.23-4.53.12-.42.65-5.3.62-5.81-.27-4.71-7.42-2.72-9.96-.83-1.26.94-2.14,2.85-3.12,3.4-3.47,1.93-6.61.85-9.73,1.56-.98.23-1.71,1.26-2.35,1.37-.9.14-2.06-.63-3.59-.3-1.06.23-1.82,1.43-2.85,1.53-.33.03-5.48-1.52-6.31-1.77-5.08-1.54-13.84-5.43-16.32-10.68-.49-1.05-.2-2.4-.88-3.44-.47-.71-1.6-.98-1.85-1.38-.22-.36.71-6.96.75-8.33.06-1.89-.82-4.05-.44-6.51.31-2.02,1.88-3.87,2.53-5.57.32-.84-.09-2.11.38-2.86.36-.57,3.43-1.13,4.59-1.89,1.57-1.04,2.09-3.1,3.79-3.77.82-.32,6.13-1.71,6.93-1.76,1.5-.11,2.7.57,4.16.47,1.89-.13,3.02-1.84,5.12-.84s6.97,2.52,9.44,2.43c1.4-.05,5.45-.54,6.69-.91,3.48-1.06,4.91-4.88,2.8-7.89-.39-.56-1.53-.8-1.64-1.22-.12-.5,1.76-2.58,1.89-3.97.15-1.61-.88-6.33-.76-8.38.33-5.39,3.13-9.42,3.69-13.05.47-3.02-.19-6.25.72-9.54.66-2.38,3.09-4.9,3.77-6.49.43-1,.24-2.48.66-3.12s3.22-.95,4.37-2.65c1.37-2.02.73-4.3,3.81-5.91,2.37-1.24,2.92-.02,4.76-.1,1.12-.05,2.17-.98,3.28-.99,3.45-.01,4.92,2.33,7.1,3.64,1.79,1.07,5.98,1.54,7.21,3.05.79.98.49,2.25.96,3.36.86,2.06,3.41,2.93,5.53,2.84ZM673.75,304.19c-2.33-1.87-9.04-2.62-10.35.38-.98,2.23-.53,10.99,1.66,12.36,1.65,1.03,5.27,1.12,6.9-.02,2.05-1.43,1.49-3.22,2.25-4.77.83-1.69,3.06-1.99,1.59-5.41-.06-.15-1.92-2.44-2.04-2.54ZM684.61,309.53c-1.37.12-2.81.69-3.69,1.76-.22.27-2.49,4.2-2.57,4.45-1.43,4.77,5.32,8.23,9,6.31,7.6-3.96,5.39-13.2-2.75-12.52ZM652.72,320.88c-1.14.21-2.57,1.07-4.05,1.37-.82.16-1.67-.46-2.83-.19-4.93,1.16-5.75,7.9-1.89,10.58,3.08,2.13,3.49-.13,5.98-.51,2-.3,3.74.68,5.23.43,4.66-.79,5.34-13.13-2.43-11.67ZM681.08,340.6c.19.2,4.58,2.18,5.02,2.26,4.51.82,9.08-1.16,7.44-6.36-.38-1.21-3.93-5.5-5.03-5.81-.72-.2-4.82.68-5.57.98-1.42.56-3.35,7.37-1.87,8.93ZM668.4,332.79c-5.16,1.1-4.7,3.94-7.87,7.25.15,2.89,1.24,10.99,5.96,8.69.28-.14,3.95-2.69,4.17-2.89.42-.39,2.53-3.9,2.64-4.42.15-.73-.37-7.14-.74-7.67-1.07-1.48-2.48-1.32-4.15-.96Z"/>
    <path class="cls-2" d="M554.04,126.9c-.25,1.35,1.37,3.43,1.03,4.51-.28.91-3.23,1.68-3.02,5.41.17,3.04,3.33,4.32,3.62,6.04.34,2.1-1.26,4.12-1.15,6.47.09,1.68,1.21,2.62,1.15,3.72-.06,1.16-1.28,1.99-1.09,3.77.12,1.19,1.17,2.08,1.33,2.96.26,1.42-.7,2.8.05,4.9.7,1.96,4.63,3.6,4.47,5.05-.29,1.81-2.18,4.75-2.5,6.15-.46,2.03-.34,3.96-.92,6.64-1.09,5-2.61,9.96-3.8,14.57-1.27,4.94-1.87,9.07-3.32,13.95-.39,1.3-1.45,2.63-1.67,3.73-.58,2.87.05,7.02-2.02,9.86-.43.59-1.59.58-2.16,1.08-1.24,1.09-5.16,7.32-5.7,8.88-.61,1.78-.24,4.04-1.1,5.38-.62.96-4.81,2.55-6.44,4.36-3.46,3.83-5.16,7.58-6.71,12.19-.48,1.42-2.42,2.42-2.5,4.26-4.22-.04-3.46-6.06-9.06-4.9-.83-2.69-1-5.79-2.13-8.4-.69-1.59-3.78-5.97-4.95-7.47-.69-.88-2.1-1.33-2.43-1.89-.58-.98-.29-2.7-1.24-4.16-.66-1.02-1.72-1.27-2.17-2.15-1.09-2.14-.79-6.65-1.23-9.03-.82-4.42-3.18-11.95-3.08-16.36.01-.5,2.7-3.73,3.04-6.96.25-2.41-.86-7.42-.78-7.81.19-.9,2.15-2.63,2.73-4.28,1.48-4.21.65-8.38,3.03-13.17,1.18-2.37,3.25-2.5,4.14-5.58.31-1.08-.13-2.34.38-3.4.34-.71,1.64-.98,2.13-1.65.71-.94,1.02-2.56,1.67-3.19,1.06-1.03,3.39-.92,4.86-2.16,1.56-1.31,1.93-3.72,2.95-5.15,1.34-1.88,3.75-3.05,5.16-4.56,1.21-1.29,3.37-5.38,4.26-6,1.09-.77,2.4-.36,3.58-.74,2.28-.74,3.1-3.73,4.6-5.12.99-.92,2.23-.94,3.48-2.46.54-.65,1.05-2.28,1.16-2.35.79-.48,3.17.07,5.58-1.71s2.79-3.25,6.75-3.24Z"/>
    <path class="cls-2" d="M813.65,455.34c.33.58.07,1.76.37,2.6.95,2.66,4.9,6.54,5.14,10.53.07,1.14-.7,2.26-.52,3.71.28,2.36,1.98,2.77,1.64,7.09-.43,5.44-2.66,6.83-4.74,10.91-.57,1.11-.48,2.82-1.18,3.68-.75.93-2.69.89-3.84,2.1-1.92,2.03-3.2,5.7-4.6,7.82-1.03,1.57-3.28,3.62-4.22,5.02-1.24,1.85-.56,3.77-1.7,5.27-.8,1.05-2.09,1.06-3.01,1.85-3.73,3.22-3.49,6.97-5.1,10.03-.38.73-1.45.85-1.9,1.48-4.69,6.62-9.28,13.36-14.27,19.6-.97,1.21-.8,3.85-2.99,3.75-.73-1.91.25-3.68-.03-5.63-.21-1.43-1.48-2.55-1.59-3.87s.61-2.36.52-3.67c-.18-2.77-2.12-7.09-2.74-10.29-.71-3.65-2.5-7.6-3.09-10.41-.21-1.02.66-2.28.45-3.63-.16-1.07-2.03-2.67-2.57-4.49-.86-2.91-.71-6.79-1.33-9.47-.52-2.25-3.51-8.97-3.67-10.92-.08-.97.67-1.89.46-3.1-.23-1.31-1.71-2.02-1.97-2.94-.35-1.25.05-2.72-.23-4.09-.53-2.58-2.68-7.61-3.51-10.53l-5.55-19.56c2.6.87,4.55-2.24,5.78-2.6,1.38-.4,2.83.17,4.46-.4,1.53-.53,2.05-2.24,2.75-2.65,1.15-.68,3.02-.22,4.58-1.36.95-.69,1.37-2.33,2.24-2.62,2.17-.74,8.19-1.22,10.49-.86,1.02.16,2.14,1.25,3.46,1.24,1.17,0,2.22-.95,3.71-.96,4.26-.04,4.66,2.3,6.79,2.95,1.54.47,7.95,1.15,8.67,1.59.45.28.84,1.42,1.75,2.03,1.04.71,5.9,2.78,6.1,3.08.46.69.43,2.87,1.43,4.51.88,1.44,3.39,2.88,3.56,3.18Z"/>
    <path class="cls-2" d="M302.4,578.34c.37.34-1.6,5.3-1.57,6.22s.86,1.58.93,2.24c.1.95-1.34,5.3-.85,7.88.22,1.15,1.52,2.32,1.49,3.39s-1.45,1.49-1.63,2.71c-.3,2.03,1.52,3.28,1.62,4.86.1,1.7-1.14,4.73-1.04,6.43s1.85,2.47,2.05,3.37-.59,2.58-.42,4.15,1.32,2.93,1.55,4.42c.49,3.22-1.12,9.31-.49,12.89.44,2.5,1.72,6,2.13,8.16.37,1.94-.28,4.43.05,6.43.24,1.43,1.35,2.1,1.57,3.29,1.1,5.84,1.49,11.84,2.83,17.69.36,1.56,1.97,2.3.97,4.71-1.77-.73-3.88-.31-5.4.81-.74.55-.86,1.66-1.48,1.87-3.03,1.05-6.92.51-9.99,1.22-4.48,1.03-4.48.71-8.65,1.06-1.96.17-4.85,1.82-7.14,2.05-1.53.15-7.73-.26-9.08-.65-.23-.07-3.86-2.54-4.02-2.73-.77-.93-1.06-3.44-2.81-5.02-.78-.7-2.57-1.28-2.65-1.4-.35-.58.11-2.28-.19-3.32-.32-1.12-2.12-1.75-2.48-2.92-.38-1.25,0-2.7-.61-4.25-.53-1.35-2.07-2-2.22-3.22-.14-1.09.56-2.1.53-3.17-.06-1.78-1.76-3.39-1.64-5.44.09-1.54,1.27-2.14,1.56-3.35.56-2.36.02-4.29-1.51-6.09,4.14-.99,3.09-4.57,3.89-7.19.4-1.3,2.51-1.96,2.92-4.15.26-1.4-.55-2.52-.37-3.43.08-.43,4.46-5.27,5.17-6.85,1.09-2.42.79-4,.48-6.51,3.18-.67,6.78-3.57,8.06-6.55.3-.7.23-2.35.42-2.54.18-.17,1.73-.1,2.5-.47,2.63-1.28,7.66-4.31,9.88-6.32,3.37-3.06,5.15-6.76,8.59-9.76s6.71-4.56,4.93-9.64l2.12-.87Z"/>
    <path d="M576.87,572.01c-.68.87-.54,2.25-1.22,3.38-1.28,2.12-6.72,6.09-9.16,6.5-1.39.24-2.58-.72-3.56-.62-.76.08-2.15,1.7-3.77,1.69s-2.17-1.31-2.96-1.6c-.59-.21-1.38.25-2.17,0-1.9-.63-6.76-4.85-7.57-6.79-1.61,2.81-3.37,2.04-5.37,2.99-1.76.83-2.01,2.43-5.4,3.24-5.66,1.36-12.66,1.71-17.83-1.66-1.63-1.06-1.71-2.81-2.69-3.79-1.84-1.85-5.09-2.49-6.27-6.16-.34-1.06-.02-2.56-.36-3.16-.15-.26-1.16-.4-1.51-.89-1.82-2.52-3.2-5.39-3.18-8.58,3.4-4.16,9.96-1.91,12.82,1.61,1.29,1.59,1.67,4.39,2.4,5.43.46.65,2.01.9,2.67,2.46.42.98.28,2.98.91,3.41.68.47,2.4.12,3.43.35,2.82.65,2.14,1,5.56.54.42-.06,1.08.44,1.25.34.11-.06.4-1.43,1.47-2.04.94-.53,2.45-.42,2.8-.71,1.02-.84,1.87-6.26,2.39-6.78.56-.55,2.2-.51,3.09-.96,1.44-.74,1.31-2.35,4.06-1.86.39.07,4.31,2.6,4.64,2.95,1.15,1.28,2.81,6.16,4.13,7.34s6.73,3.51,8.47,3.25c.94-1.16.86-2.92,1.93-4.11.82-.91,2.05-.94,2.58-1.47.75-.74.96-2.65,2.55-3.66.88-.55,2.09-.44,2.73-1.05.99-.94.99-4.52,2.01-5.82,3.55-1.42,3.8-4.37,8.21-2.81,2.1.74,2.32,4.65,1.7,6.47-.48,1.42-2.02,1.63-2.64,2.85-.6,1.16-.19,4.38-1.43,6.08-.68.92-4,2.7-4.73,3.63Z"/>
    <path d="M650.23,491.36c.28.21,2.04-.77,3.32-.41.85.24,1.69,1.69,2.59,2.3.74.51,1.93.51,2.65,1.13.79.68.89,2.14,1.18,2.33.46.3,1.83.04,2.64.32,4.41,1.54,3.38,2.46,8.03-.02,2.87-1.53,5.77-3.97,8.47-6.08,3.23-2.52,2.95-2.22,6.81-3.45,1-.32,1.62-1.41,2.83-1.43,3.12-.05,5.31,2.09,5.64,5.14.55,5.01-2.25,3.34-3.6,4.68-.46.45-.29,1.63-1.79,2.8-2.51,1.96-5.98,2.35-7.54,3.26-.61.35-.84,1.93-1.63,2.69-1.7,1.63-5.28,2.45-7.15,3.54-1.3.76-2.08,2.82-4.47,3.21-3.58.58-3.48-.72-5.68-1.82-2.57-1.28-2.44-1.49-4.31-2.71-7.53-4.91-13.18-6.92-22.13-9.18-.71-.18-1.34-1.17-1.96-1.28-.66-.12-1.93.93-3.15,1.02-5.3.39-11.37-1.14-17.14.63-1.81.56-3.95,2.83-5.69,3.51-1.5.59-2.8,0-3.89.36-1.2.4-4.29,3.81-5.99,1.04-.28-.45-1.08-4.7-1.06-5.34.1-3.68,7.4-6.2,10.25-7.57,1.76-.85,6.5-3.72,8.54-3.89,1.61-.13,3.19.9,5.16.31,3.09-.93,1.3-2.06,6.45-1.36,6.19.84,15.88,1.63,21.48,4.45.88.44.91,1.68,1.15,1.85Z"/>
    <path d="M468.82,486.46c.63.37,1.93-.49,2.84-.44,1.2.07,2.05,1.15,2.98,1.36.86.2,1.7-.29,2.72-.09,2.88.58,3.47,2.69,5.26,3.42s4.49-.11,5.69.65c.18.12,2.9,2.89,3.02,3.07,1.47,2.21-.47,3.3-1.2,5.07-.37.9.24,2.69-1.44,3.51-2.85,1.38-3.62-.63-4.88-1.06-3.88-1.33-9.12-2.38-12.79-3.95-.79-.34-1.61-1.57-2.03-1.6-.47-.03-1.41,1.02-2.67.94-.85-.06-1.56-.83-2.33-.96-6.24-1.06-19.04-.36-25.11,1.63-.87.28-1.22,1.3-2.31,1.49-1.42.25-2.91-.57-3.7-.42-.64.12-1.64,1.63-2.64,2.15-1.59.82-4.81,1.5-6.29,2.35-2.13,1.22-5.01,5.51-6.83,5.62-2.5.16-2.51-1.82-3.84-2.59-4.89-2.8-4.92-3.3-8.66-7.15-1.96-2.03-6.42-2.89-7.83-6.6-.53-1.41-.23-6.13.38-7.41,1.84-3.84,10.93,3.35,12.71,5.12.7.7.79,2.1,1.42,2.49,1.06.66,2.75.25,3.95.78.98.43,1.71,2.43,2.98,2.42,2.01-4.59,5.56-4.18,9.05-5.55,1.09-.43,1.56-1.53,2.96-1.9s4.32-.07,5.4-.54,1.71-1.72,2.65-2.22c1.99-1.04,6.44-.14,9.54-.82,3.83-.83,2.9-.36,6.06-.56.78-.05,1.49-.92,2.65-.85,1.27.08,2.18,1.41,2.74,1.44.5.03,1.36-.83,2.2-.89s4.59-.05,5.21.09c1.85.41,1.79,1.78,2.14,1.98Z"/>
    <path d="M652.72,320.88c7.78-1.46,7.1,10.89,2.43,11.67-1.5.25-3.23-.73-5.23-.43-2.49.37-2.9,2.64-5.98.51-3.86-2.67-3.04-9.42,1.89-10.58,1.16-.27,2.01.35,2.83.19,1.48-.3,2.91-1.15,4.05-1.37Z"/>
    <path d="M673.75,304.19c.13.1,1.98,2.39,2.04,2.54,1.47,3.42-.76,3.72-1.59,5.41-.76,1.55-.2,3.34-2.25,4.77-1.63,1.14-5.25,1.04-6.9.02-2.19-1.36-2.64-10.13-1.66-12.36,1.31-3,8.02-2.25,10.35-.38Z"/>
    <path d="M668.4,332.79c1.67-.36,3.08-.52,4.15.96.38.52.89,6.93.74,7.67-.11.52-2.22,4.04-2.64,4.42-.22.2-3.89,2.75-4.17,2.89-4.72,2.3-5.82-5.8-5.96-8.69,3.17-3.31,2.71-6.15,7.87-7.25Z"/>
    <path d="M684.61,309.53c8.14-.68,10.35,8.56,2.75,12.52-3.68,1.92-10.44-1.54-9-6.31.07-.25,2.35-4.18,2.57-4.45.88-1.07,2.31-1.65,3.69-1.76Z"/>
    <path d="M681.08,340.6c-1.49-1.56.45-8.37,1.87-8.93.74-.29,4.84-1.18,5.57-.98,1.1.31,4.65,4.6,5.03,5.81,1.64,5.2-2.93,7.18-7.44,6.36-.44-.08-4.83-2.06-5.02-2.26Z"/>
  </g>
  <rect class="cls-1" width="1080" height="1080"/>
</svg>