<svg width="277" height="346" viewBox="0 0 277 346" fill="none" xmlns="http://www.w3.org/2000/svg">
<path d="M143.251 1.42459C141.829 2.20897 139.721 3.82674 138.594 5.00331C137.417 6.17987 135.946 7.30741 135.26 7.45448C134.623 7.60155 133.691 8.43495 133.201 9.26835C132.711 10.1017 131.779 11.1312 131.093 11.5234C130.456 11.9646 129.573 13.0432 129.132 13.9746C128.691 14.857 127.858 15.7395 127.318 15.9355C125.995 16.3277 124.083 18.5338 124.034 19.6613C124.034 20.1025 123.494 21.132 122.808 21.9654C121.926 22.9459 121.386 24.4656 121.043 26.5246C120.749 28.1914 120.259 29.9072 119.965 30.2994C119.622 30.6916 119.377 32.2114 119.327 33.7311C119.327 35.2508 118.984 37.2117 118.641 38.0451C118.053 39.4178 118.053 40.2022 118.788 43.6829C119.229 45.9379 119.622 48.4381 119.622 49.3206C119.622 50.154 119.867 51.0364 120.161 51.2325C120.455 51.3795 120.994 52.262 121.386 53.0954C121.779 53.9288 122.857 55.5465 123.789 56.7231C124.769 57.9487 125.652 59.6645 125.799 60.743C126.044 62.1647 126.387 62.704 127.269 62.9001C127.907 63.0962 128.642 63.6354 128.936 64.1747C129.819 65.8415 130.75 65.2532 132.319 62.0667C134.035 58.586 135.015 57.3114 136.927 56.0858C137.662 55.5956 138.398 54.6641 138.545 53.9288C138.986 52.0659 141.094 48.5852 142.123 48.0459C142.712 47.7028 143.202 46.5752 143.545 44.7123C143.839 43.1436 144.967 38.4373 146.045 34.2703C147.124 30.1033 148.055 26.1815 148.055 25.5932C148.055 25.0049 148.447 23.7303 148.889 22.7498C149.673 21.083 149.673 21.034 148.545 19.8084C147.222 18.3867 146.977 17.0631 146.977 11.1312C146.977 8.04276 146.83 6.71913 146.29 6.27792C145.408 5.54256 145.408 3.92479 146.339 2.89529C146.977 2.15994 146.879 -0.095139 146.143 0.00290802C145.996 0.00290802 144.673 0.640214 143.251 1.42459Z" fill="#FFFCF2"/>
<path d="M199.531 57.6548C196.59 58.0469 196.001 58.3411 195.511 59.8118C195.217 60.6452 194.482 61.4786 193.844 61.7237C193.207 61.9688 192.668 62.5571 192.668 63.0473C192.668 63.5376 192.226 64.469 191.687 65.1554C191.05 65.9397 190.707 67.1653 190.707 68.636C190.707 69.8616 190.266 72.1167 189.775 73.5874C188.844 76.3327 188.207 83.9314 188.893 84.5687C189.53 85.206 189.236 87.0689 188.403 87.8042C187.03 89.0298 183.843 89.3239 181.343 88.4905C178.353 87.5101 170.607 88.3435 170.607 89.7161C170.607 89.9612 169.97 90.4515 169.136 90.8927C168.303 91.3339 167.372 92.4124 166.979 93.3439C166.146 95.3538 165.852 102.609 166.538 103.492C166.832 103.835 167.224 104.619 167.421 105.257C167.911 106.923 171.048 108.982 175.019 110.257C177.519 111.041 178.598 111.237 179.088 110.845C179.431 110.551 180.167 110.306 180.657 110.306C183.402 110.257 186.883 109.326 187.863 108.394C189.334 107.07 191.589 106.237 192.717 106.58C194.138 107.07 193.991 110.453 192.472 112.267C191.099 113.885 190.217 118.787 191.148 119.719C191.442 120.013 191.687 120.699 191.687 121.189C191.687 122.268 195.021 127.905 195.658 127.905C195.903 127.905 196.59 128.396 197.178 128.984C198.011 129.817 198.943 130.111 200.511 130.161C202.325 130.259 203.061 129.964 204.727 128.592C206.443 127.219 206.884 126.484 207.571 123.787C208.012 122.023 208.355 119.522 208.355 118.199C208.355 112.953 210.316 111.188 214.14 113.051C215.758 113.836 216.003 114.179 216.199 116.238C216.244 116.628 216.298 116.999 216.354 117.33C216.511 118.251 217.095 118.928 217.915 119.375V119.375C218.454 119.669 218.993 120.356 219.042 120.846C219.287 122.072 221.052 123.493 222.474 123.493C223.062 123.493 223.945 123.935 224.386 124.474C224.876 125.013 225.611 125.454 226.053 125.454C226.494 125.454 227.131 125.797 227.474 126.19C228.553 127.513 231.592 127.072 234.436 125.258C235.906 124.376 237.475 123.542 238.014 123.444C238.554 123.297 239.044 122.758 239.142 122.17C239.24 121.581 239.632 120.846 240.024 120.552C240.417 120.209 240.711 119.13 240.711 118.101C240.711 117.12 240.956 115.65 241.201 114.865C241.593 113.787 241.544 112.904 241.054 111.483C240.662 110.404 240.466 109.276 240.564 108.933C240.662 108.639 240.27 108.1 239.632 107.757C238.995 107.414 237.916 106.482 237.132 105.698C236.103 104.57 235.514 104.325 234.583 104.57C233.651 104.815 233.063 104.619 232.23 103.737C230.563 101.972 229.092 101.335 227.278 101.678C225.906 101.972 225.513 101.776 224.386 100.452C223.356 99.2267 223.16 98.7364 223.552 98.0011C224.288 96.5794 225.955 95.8441 228.553 95.795C231.004 95.746 232.377 94.9616 232.377 93.589C232.377 93.0987 233.063 92.0693 233.847 91.2849C234.681 90.5495 235.318 89.6671 235.318 89.3239C235.318 88.9808 235.906 88.3435 236.691 87.8532C237.426 87.363 238.26 86.6276 238.603 86.2355C239.338 85.353 239.436 82.5097 238.75 82.0685C238.505 81.9214 238.26 81.137 238.26 80.4017C238.26 79.6173 237.916 78.7349 237.524 78.3917C237.132 78.0976 236.25 76.8229 235.563 75.6464C234.044 73.0481 229.975 70.695 228.406 71.5284C227.916 71.8225 226.886 72.0186 226.102 72.0186C225.317 72.0186 224.19 72.4599 223.552 72.9991C222.915 73.5384 222.033 73.9796 221.543 73.9796C221.052 73.9796 220.513 74.2247 220.366 74.4698C220.023 75.0091 216.934 77.1661 214.924 78.2937C214.287 78.6368 213.748 79.2741 213.748 79.6663C213.748 80.0585 213.012 80.6958 212.179 81.088C210.757 81.6763 210.463 81.6272 209.728 80.9899C208.551 79.9604 208.502 75.8425 209.63 74.911C210.12 74.5188 210.316 73.8325 210.12 72.9991C209.973 72.2147 210.169 71.2343 210.659 70.5479C211.297 69.6165 211.346 69.0772 210.855 67.0182C210.561 65.6946 210.414 64.42 210.561 64.1749C210.708 63.9788 210.267 63.6356 209.63 63.4886C208.894 63.3415 208.257 62.6552 207.963 61.7727C207.62 60.8413 207.032 60.253 206.1 60.0569C205.365 59.8608 204.188 59.3216 203.502 58.8313C201.884 57.7038 201.051 57.4587 199.531 57.6548ZM205.463 87.1669V87.1669C206.311 88.0146 206.516 89.3118 205.971 90.3798L205.61 91.0888C204.58 93.2458 204.188 93.589 202.963 93.589C200.806 93.589 200.021 92.4614 200.021 89.422C200.021 87.412 200.217 86.6767 200.904 86.2845C202.374 85.4021 203.992 85.6962 205.463 87.1669ZM213.16 89.9612C214.63 90.9907 214.581 93.2948 213.012 94.8146C211.689 96.1872 210.953 96.2853 209.091 95.4519C206.983 94.4714 206.983 92.1183 209.14 89.9612C210.12 88.9808 211.738 88.9808 213.16 89.9612ZM197.08 95.5499C198.992 97.4618 197.668 101.237 195.217 100.795C194.531 100.648 193.403 100.746 192.766 100.992C190.266 101.923 188.354 99.1286 189.922 96.7755C190.462 95.9911 191.197 95.5499 192.079 95.5009C192.815 95.5009 193.844 95.3048 194.384 95.0597C195.805 94.4224 196.001 94.4714 197.08 95.5499ZM213.944 100.992C216.199 103.639 215.415 105.845 212.277 105.845C207.883 105.845 207.24 101.885 210.316 100.187C211.583 99.4878 213.024 99.8746 213.944 100.992V100.992ZM204.237 100.844C204.531 101.041 204.973 102.07 205.12 103.198C205.463 105.06 205.316 105.355 203.796 107.021C201.59 109.326 200.217 109.326 199.237 106.972C198.551 105.355 198.551 105.06 199.384 103.541C200.609 101.237 202.914 99.962 204.237 100.844Z" fill="#FFFCF2"/>
<path d="M157.664 71.4799C157.223 72.1172 150.752 72.5094 148.791 71.9701C147.467 71.578 146.83 71.627 146.291 72.0682C145.85 72.4114 144.036 72.7055 142.222 72.7545C140.408 72.8035 138.594 73.0487 138.202 73.2938C137.81 73.5389 135.162 73.735 132.27 73.784C131.77 73.7926 131.277 73.8058 130.801 73.823C127.872 73.9286 125.003 74.693 122.073 74.7645V74.7645C117.955 74.8135 109.18 76.3823 107.513 77.3137C106.925 77.6078 105.307 78.1471 103.836 78.4412C100.748 79.1276 93.1003 82.7063 91.1884 84.3731C90.7962 84.7163 88.7862 86.236 86.6782 87.7067C84.6192 89.2264 82.2171 91.3835 81.3837 92.511C80.5993 93.6385 79.6679 94.57 79.4227 94.57C79.1286 94.57 78.6874 95.1092 78.4423 95.7956C78.1971 96.4329 77.1186 97.5604 75.9911 98.2467C74.9126 98.9331 74.0302 99.6684 74.0302 99.8645C74.0302 100.061 72.2163 102.169 70.0102 104.473C67.7551 106.826 65.5491 109.375 65.1079 110.11C64.6176 110.846 64.0294 111.826 63.7842 112.218C63.5391 112.611 63.0489 113.738 62.7057 114.67C62.3626 115.601 61.235 117.17 60.2545 118.15C58.8819 119.523 58.4407 120.405 58.2446 122.17C58.0975 123.445 57.5583 125.063 57.068 125.798C56.5778 126.582 56.2346 127.857 56.3327 128.69C56.3817 129.524 56.1366 130.455 55.7444 130.798C55.3522 131.092 55.1071 131.828 55.2542 132.367C55.4012 132.906 55.2051 133.691 54.8129 134.181C53.9305 135.161 52.754 139.426 53.1461 140.064C53.2932 140.309 53.1952 141.142 52.95 141.927C52.7049 142.711 52.0186 144.868 51.4303 146.78C50.842 148.643 49.9596 150.8 49.4694 151.535C48.9301 152.222 48.5379 153.643 48.5379 154.722C48.5379 157.124 46.675 164.527 45.7436 165.997C45.3514 166.585 44.9592 168.154 44.9102 169.478C44.8121 170.949 44.3709 172.419 43.7827 173.302C43.1944 174.135 42.7532 175.508 42.7532 176.488C42.7532 179.086 40.7922 185.656 39.1744 188.548C38.341 189.921 37.2135 192.568 36.5762 194.431C34.7133 199.872 31.8209 206.54 30.8895 207.569C30.3502 208.206 29.909 209.775 29.7129 211.932C29.5168 213.795 29.1737 215.658 28.9285 216.099C28.4383 217.08 28.2912 228.012 28.6834 235.758C28.8305 238.846 28.9776 241.935 28.9776 242.621C28.9776 243.307 29.2227 244.435 29.5168 245.17C29.909 246.2 29.86 246.935 29.4188 248.014C28.8795 249.288 28.9285 249.631 29.5658 250.122C29.958 250.465 30.3992 251.494 30.5463 252.426C30.6934 253.357 31.1346 256.446 31.5268 259.289C31.919 262.132 32.6053 265.417 33.0465 266.593C33.4877 267.77 33.8309 269.682 33.8309 270.809C33.8309 272.182 34.125 273.114 34.7623 273.702C35.2526 274.192 35.9389 275.516 36.233 276.643C36.5272 277.82 37.0664 279.045 37.5076 279.389C37.8998 279.732 38.243 280.516 38.243 281.153C38.243 281.791 38.8313 282.918 39.5176 283.654C40.2039 284.389 41.3315 286.056 41.9688 287.33C43.4885 290.321 48.734 296.155 50.4498 296.743C53.3913 297.723 55.5973 299.733 56.5288 302.184C57.3622 304.342 57.4112 305.028 56.921 308.067C56.3327 311.793 56.2836 312.381 56.6268 315.666C56.8719 317.823 56.921 319.196 56.8229 323.51C56.7739 326.745 60.9899 339.687 62.4116 340.668C62.9999 341.06 63.8333 341.795 64.3235 342.237C66.0393 343.953 67.8042 344.786 69.471 344.688C70.4514 344.59 71.677 344.884 72.3143 345.276C73.0987 345.815 74.1772 345.913 76.2852 345.717C77.903 345.57 79.4227 345.276 79.6679 345.08C79.962 344.835 81.2856 344.345 82.7073 343.953C85.7468 343.021 87.3645 342.237 87.9038 341.354C88.0999 340.962 88.9823 340.325 89.8647 339.884C90.6981 339.442 92.3159 338.119 93.4925 336.991C94.62 335.864 96.3358 334.54 97.2673 334.099C98.2478 333.658 99.2282 332.873 99.5224 332.334C99.8165 331.795 100.944 331.157 102.072 330.814C103.248 330.52 104.572 329.981 105.111 329.589C106.533 328.608 107.366 328.706 108.788 330.079C110.7 331.893 117.661 334.393 120.504 334.344C121.142 334.295 122.318 334.736 123.054 335.275C123.789 335.815 125.211 336.256 126.142 336.256C127.074 336.256 128.642 336.599 129.574 336.991C131.927 337.972 137.27 338.021 141.388 337.089C143.251 336.697 145.065 336.452 145.457 336.599C145.801 336.746 146.438 336.599 146.83 336.256C147.32 335.815 148.399 335.717 150.066 335.913C151.83 336.109 153.007 336.011 153.987 335.52C154.723 335.128 156.243 334.785 157.37 334.785C159.625 334.785 160.949 334.197 165.9 331.01C168.4 329.393 169.675 328.853 170.704 329C171.636 329.147 172.126 329 172.322 328.461C172.469 328.02 173.548 327.137 174.724 326.549C176.98 325.324 178.499 325.52 179.088 327.137C179.235 327.53 179.97 328.118 180.754 328.51C181.49 328.853 182.176 329.589 182.274 330.128C182.372 330.667 183.205 331.893 184.088 332.824C184.921 333.756 185.804 334.932 185.951 335.373C186.147 335.864 186.539 336.256 186.931 336.256C187.274 336.256 188.206 336.942 189.039 337.776C191.392 340.276 194.187 342.139 195.657 342.139C196.442 342.139 198.305 342.678 199.824 343.364C202.031 344.345 203.354 344.59 206.345 344.541C211.394 344.492 215.365 343.903 215.61 343.119C215.757 342.776 216.247 342.139 216.787 341.697C217.326 341.256 218.748 339.933 219.924 338.707C221.787 336.795 222.081 336.256 222.081 334.442C222.081 333.216 222.473 331.697 223.062 330.765C223.601 329.883 224.042 328.559 224.042 327.873C224.042 327.137 224.483 326.01 225.023 325.324C225.562 324.637 225.856 323.755 225.709 323.314C225.562 322.921 225.758 321.941 226.15 321.206C227.523 318.509 228.062 316.352 228.013 313.705C227.67 300.371 228.013 296.155 229.631 294.488C230.905 293.164 232.866 290.027 232.866 289.291C232.866 288.997 234.043 287.575 235.465 286.056C237.229 284.242 238.553 282.232 239.484 280.026C240.269 278.212 241.298 276.104 241.789 275.369C242.279 274.682 242.671 273.702 242.671 273.163C242.671 271.496 246.103 258.603 246.838 257.524C247.279 256.838 247.426 255.857 247.279 254.926C247.083 254.092 247.279 252.916 247.671 252.033C248.064 251.249 248.309 249.925 248.211 249.141C248.064 248.308 248.211 247.474 248.505 247.327C248.799 247.131 249.044 246.102 249.044 245.072C249.044 244.043 249.24 243.013 249.534 242.866C249.779 242.719 249.877 240.709 249.779 238.16C249.583 234.777 249.73 233.454 250.27 232.62C250.907 231.64 250.907 230.463 250.27 222.472C249.828 217.521 249.289 212.373 249.044 211.099C248.75 209.824 248.554 208.01 248.554 207.079C248.554 206.147 248.358 205.314 248.113 205.167C247.917 205.02 247.573 204.088 247.377 203.059C246.838 200.216 245.563 193.058 245.269 191.146C245.122 190.215 244.681 189.185 244.338 188.793C243.946 188.45 243.651 187.519 243.651 186.783C243.651 186.048 243.455 185.263 243.21 184.969C242.965 184.724 242.426 182.224 241.985 179.43C241.543 176.586 240.857 173.939 240.465 173.498C240.073 173.057 239.73 171.978 239.73 171.145C239.73 170.311 239.533 169.527 239.288 169.331C239.043 169.184 238.651 167.811 238.455 166.242C238.308 164.723 237.72 162.369 237.229 161.095C236.69 159.82 236.298 158.006 236.298 157.124C236.298 156.242 235.661 154.281 234.827 152.761C233.994 151.143 233.357 149.231 233.357 148.202C233.357 147.221 232.964 145.947 232.425 145.26C231.886 144.574 231.347 143.103 231.15 141.976C230.954 140.848 230.317 139.377 229.68 138.691C229.091 138.005 228.307 136.632 228.013 135.652C227.376 133.74 224.974 131.828 223.209 131.828C222.669 131.828 221.689 131.436 221.052 130.896C220.414 130.406 218.698 129.279 217.228 128.445C214.335 126.729 213.6 126.876 213.11 129.328C212.914 130.21 212.178 131.092 211.1 131.779C210.168 132.367 208.943 133.593 208.404 134.524C207.815 135.603 206.933 136.338 206.05 136.485C205.315 136.681 204.089 137.122 203.354 137.515C201.883 138.299 198.746 138.446 198.305 137.711C198.158 137.466 196.785 136.877 195.363 136.436C193.255 135.848 192.618 135.407 192.373 134.475C192.177 133.789 191.736 133.299 191.245 133.299C189.628 133.299 186.294 128.641 186.294 126.386C186.294 125.7 185.706 124.376 185.019 123.445C183.941 122.023 183.794 121.435 184.039 119.523C184.382 116.925 184.088 116.434 182.666 117.366C181.441 118.15 175.264 118.052 173.695 117.219C173.107 116.876 172.077 116.631 171.342 116.631C169.234 116.631 163.743 113.297 163.743 112.022C163.743 111.728 163.302 111.189 162.763 110.846C162.223 110.503 161.782 109.963 161.782 109.571C161.782 109.228 161.292 108.591 160.704 108.199C159.772 107.561 159.625 106.875 159.233 101.384C158.841 95.7956 158.89 95.0112 159.87 91.9227C161.145 88.0499 162.567 86.4321 167.028 83.6377C169.871 81.9219 171.244 81.5297 176.342 81.1866C177.176 81.1375 178.058 80.8924 178.254 80.6963C178.45 80.5002 179.235 80.3532 180.019 80.3532C181.196 80.3532 181.392 80.1571 181.392 78.9805C181.392 77.2647 178.891 75.2547 176.293 74.8135C175.264 74.6664 173.891 74.0291 173.254 73.4409C172.273 72.5094 171.979 72.4604 170.361 72.9996C169.136 73.3918 168.204 73.4409 167.175 73.0487C166.341 72.8035 164.626 72.7055 163.302 72.8526C161.292 73.0977 160.753 72.9506 159.87 72.0682C158.792 70.9897 158.056 70.7936 157.664 71.4799ZM73.687 176.439C74.9616 177.224 76.1382 178.253 76.2852 178.645C76.4813 179.037 76.9716 179.381 77.4618 179.381C77.952 179.381 78.5893 179.724 78.9325 180.116C79.4718 180.753 79.7169 180.704 80.9915 179.626C81.7759 178.939 82.8054 178.4 83.2466 178.4C83.6878 178.4 84.5212 178.057 85.0114 177.665C85.5507 177.273 86.4821 176.929 87.1194 176.929C87.7567 176.929 88.7862 176.586 89.3745 176.194C90.7472 175.312 104.131 174.625 104.621 175.41C104.817 175.655 105.993 176.047 107.268 176.243C108.543 176.439 110.111 176.978 110.749 177.469C111.386 178.008 112.465 178.4 113.151 178.4C115.308 178.4 117.22 181.145 115.7 182.077C115.455 182.224 115.21 182.763 115.21 183.303C115.21 183.793 114.916 184.283 114.573 184.43C114.033 184.626 108.445 183.057 105.65 181.881C103.052 180.753 93.6886 180.9 90.1099 182.077C85.1095 183.744 82.6093 184.92 80.9915 186.342L80.7644 186.535C79.949 187.227 78.7653 187.268 77.903 186.636V186.636C76.6284 185.656 74.4714 183.891 70.2553 180.361C68.4415 178.89 68.9317 174.969 70.8436 174.969C71.1378 174.969 72.4124 175.606 73.687 176.439ZM187.716 175.998C189.48 176.292 191.687 176.978 192.569 177.469C193.451 177.959 194.579 178.4 195.02 178.4C195.51 178.4 196.638 179.037 197.569 179.822C199.677 181.538 202.031 182.126 203.55 181.293C204.188 180.949 205.805 179.871 207.129 178.89C211.737 175.459 214.384 175.165 215.414 178.057C215.806 179.136 215.659 179.528 214.188 180.9C213.257 181.783 211.835 182.763 210.953 183.106C210.07 183.499 208.845 184.283 208.207 184.871C206.737 186.244 202.766 188.695 202.08 188.695C201.785 188.695 199.726 187.568 197.471 186.244C192.03 182.91 187.029 181.489 181.048 181.636C177.715 181.685 176.097 181.979 174.675 182.665C172.714 183.695 169.675 184.773 168.744 184.773C168.449 184.773 168.057 183.989 167.861 183.057C167.469 180.802 168.351 179.773 172.567 177.763C177.176 175.606 182.029 175.067 187.716 175.998ZM161.684 208.893C162.518 209.726 162.42 211.981 161.537 212.717C161.145 213.06 160.802 213.844 160.802 214.53C160.802 215.168 160.213 216.295 159.429 217.031C158.645 217.766 157.664 218.943 157.223 219.678C156.046 221.59 154.282 222.619 151.34 223.061C148.301 223.551 146.389 223.061 144.33 221.149C142.712 219.678 142.565 219.678 139.575 221.688C138.006 222.717 134.182 223.257 131.682 222.815C128.446 222.178 122.073 214.58 122.073 211.344C122.073 208.795 125.358 208.55 127.76 210.952C128.691 211.883 129.427 212.962 129.427 213.354C129.427 213.746 129.77 214.187 130.162 214.383C130.554 214.53 130.897 214.972 130.897 215.413C130.897 216.246 132.76 217.129 134.525 217.129C136.535 217.129 138.594 215.756 138.888 214.236C139.329 212.177 142.173 210.805 143.938 211.785C144.624 212.128 145.604 213.256 146.095 214.187C147.173 216.295 147.761 216.786 149.919 217.521C151.046 217.913 151.487 217.913 151.487 217.521C151.487 217.227 152.615 215.952 153.938 214.629C155.311 213.305 156.39 212.03 156.39 211.687C156.39 210.854 159.331 208.304 160.262 208.304C160.704 208.304 161.341 208.55 161.684 208.893Z" fill="#FFFCF2"/>
<path d="M250.906 153.349C250.22 153.937 249.435 154.379 249.141 154.379C248.896 154.379 248.21 154.82 247.572 155.359C246.935 155.898 246.004 156.34 245.513 156.34C244.386 156.34 242.18 157.712 242.18 158.448C242.18 158.742 243.062 162.075 244.19 165.85C245.268 169.674 246.347 173.547 246.592 174.478C246.788 175.41 247.425 177.714 247.964 179.626C248.504 181.489 249.092 183.989 249.239 185.165C249.435 186.342 249.876 187.813 250.318 188.45V188.45C250.997 189.431 250.734 190.72 250.979 191.887C251.198 192.93 251.552 194.327 251.984 195.804C252.769 198.696 253.455 201.588 253.455 202.324C253.406 203.059 253.602 204.481 253.798 205.51V205.51C253.95 206.23 254.881 206.43 255.316 205.837L258.357 201.686C260.662 198.549 263.113 194.872 263.799 193.499C264.485 192.127 265.417 190.754 265.907 190.411C266.348 190.068 267.231 188.891 267.819 187.813C270.123 183.695 270.907 182.518 272.574 180.851C275.222 178.253 277.182 173.939 276.79 171.684C276.594 170.654 276.398 168.89 276.3 167.811C276.251 166.684 275.663 165.115 275.123 164.281C274.535 163.497 274.045 162.517 274.045 162.124C274.045 161.732 273.506 160.899 272.819 160.261C272.133 159.624 271.594 158.742 271.594 158.251C271.594 157.271 266.789 154.379 265.074 154.379C264.485 154.379 263.456 154.035 262.819 153.594C262.034 153.006 260.269 152.712 256.936 152.565C252.72 152.369 252.033 152.467 250.906 153.349Z" fill="#FFFCF2"/>
<path d="M17.9467 228.601C15.7897 230.856 13.0444 233.16 11.9168 233.748C10.7403 234.337 9.5147 235.464 9.07348 236.249C8.6813 237.033 7.6518 238.062 6.86743 238.455C5.78891 239.043 5.39672 239.582 5.39672 240.563C5.39672 241.347 4.85746 242.671 4.17113 243.602C3.48481 244.534 2.94555 245.661 2.94555 246.2C2.94555 246.691 2.65141 247.72 2.25922 248.406C0.396325 251.985 0.0531607 253.309 0.00413718 257.329C-0.0448863 259.878 0.347302 262.28 0.88656 262.819C1.22972 263.163 1.47484 263.898 1.47484 264.486C1.47484 265.074 1.81801 265.81 2.21019 266.153C2.60238 266.496 2.94555 267.182 2.94555 267.673C2.94555 268.212 3.19066 268.604 3.43578 268.604C3.72992 268.604 4.41625 269.339 4.95551 270.271C5.59282 271.349 6.57329 272.183 7.6518 272.526C9.36763 273.114 10.3971 273.065 15.6917 272.085C17.1624 271.84 19.7116 271.448 21.3294 271.251C22.9471 271.055 24.5159 270.614 24.761 270.271C25.0551 269.928 25.7905 269.585 26.4768 269.487C27.2612 269.389 27.6534 269.045 27.5063 268.604C27.2612 267.722 25.6434 259.241 24.9571 255.368C24.712 253.897 24.3198 249.73 24.0257 246.151C23.7805 242.573 23.3883 239.386 23.1923 239.043C22.8001 238.455 22.5549 234.974 22.604 230.709C22.604 225.807 22.5549 224.483 22.2608 224.483C22.1137 224.483 20.1528 226.346 17.9467 228.601Z" fill="#FFFCF2"/>
</svg>
